<?xml version="1.0" encoding="utf-8"?>
<!-- Generator: Adobe Illustrator 16.0.0, SVG Export Plug-In . SVG Version: 6.00 Build 0)  -->
<!DOCTYPE svg PUBLIC "-//W3C//DTD SVG 1.1//EN" "http://www.w3.org/Graphics/SVG/1.1/DTD/svg11.dtd">
<svg version="1.1" id="Layer_13" xmlns="http://www.w3.org/2000/svg" xmlns:xlink="http://www.w3.org/1999/xlink" x="0px" y="0px"
	 width="100px" height="100px" viewBox="0 0 100 100" enable-background="new 0 0 100 100" xml:space="preserve">
<path d="M83.637,43.459c-0.04-0.423-0.206-0.768-0.405-1.068c0.198-0.51,0.143-1.117-0.279-1.394
	c0.168-0.338,0.294-0.746,0.217-1.238c-0.665-4.288-1.665-7.874-2.387-10.127c-0.433-1.351-1.691-1.179-2.73-0.934
	c0.312-0.516,0.722-1.115,1.137-1.643c0.283-0.361,0.351-0.898,0.166-1.345c-0.495-1.208-1.009-2.378-1.525-3.481
	c-0.885-1.89-1.811-3.644-2.75-5.211c-0.357-0.596-0.877-0.793-1.257-0.938c-0.043-0.016-0.097-0.037-0.146-0.057
	c-0.007-0.015-0.011-0.033-0.019-0.047c-0.001-0.049-0.003-0.101-0.004-0.143c-0.015-0.464-0.034-1.098-0.394-1.599
	c-3.657-5.118-7.669-7.896-11.921-8.258c-0.538-0.046-0.994,0.244-1.326,0.455c-0.016,0.011-0.036,0.023-0.054,0.034
	c-0.06-0.017-0.118-0.019-0.179-0.023c-0.234-0.21-0.582-0.458-1.048-0.384c-4.777,0.707-8.131,4.199-8.802,4.948
	c-0.92-0.986-4.159-4.129-8.663-4.796c-0.466-0.074-0.813,0.174-1.048,0.384c-0.061,0.004-0.12,0.006-0.179,0.023
	c-0.018-0.011-0.037-0.023-0.054-0.034c-0.332-0.211-0.788-0.501-1.327-0.455c-4.251,0.362-8.262,3.14-11.92,8.257
	c-0.359,0.501-0.379,1.136-0.394,1.6c-0.001,0.042-0.003,0.093-0.004,0.143c-0.008,0.014-0.012,0.032-0.019,0.047
	c-0.05,0.02-0.104,0.041-0.147,0.057c-0.379,0.145-0.898,0.342-1.256,0.938c-0.939,1.568-1.865,3.321-2.749,5.211
	c-0.517,1.103-1.031,2.273-1.527,3.481c-0.184,0.446-0.116,0.984,0.168,1.345c0.414,0.527,0.824,1.127,1.136,1.643
	c-1.038-0.245-2.298-0.417-2.73,0.934c-0.722,2.253-1.722,5.839-2.387,10.127c-0.077,0.492,0.049,0.9,0.217,1.238
	c-0.421,0.277-0.478,0.884-0.279,1.394c-0.199,0.3-0.364,0.646-0.405,1.068C15.181,55.89,17.839,67,24.05,75.737
	c0.481,0.675,1.058,0.563,1.664,0.15c-0.361,1.043-0.392,1.556,0.031,2.072c5.519,6.766,13.414,12.153,23.467,16.013
	c0.099,0.038,0.199,0.056,0.298,0.056c0.221,0,0.431-0.096,0.602-0.257c0.119,0.062,0.246,0.105,0.379,0.105
	c0.1,0,0.199-0.019,0.298-0.056c10.053-3.86,17.948-9.248,23.467-16.013c0.423-0.516,0.393-1.028,0.031-2.072
	c0.606,0.412,1.184,0.525,1.664-0.15C82.161,66.848,84.819,55.739,83.637,43.459z M22.595,69.324
	c-2.502-4.886-3.975-10.3-4.406-16.198C22.219,57.093,23.231,63.229,22.595,69.324z M48.526,47.52
	c-3.79-0.864-7.592-1.507-11.439-1.723c1.146-0.811,2.38-1.407,3.705-1.707c1.243-0.281,0.715-2.569-0.522-2.289
	c-2.241,0.508-4.212,1.792-5.998,3.47c-0.333,0.313-0.396,0.706-0.3,1.058c-0.282,0.7-0.014,1.75,0.831,1.759
	c4.634,0.046,9.183,0.782,13.724,1.841V66.23c-1.124-1.449-2.494-2.406-4.101-2.987c-0.017-0.17-0.07-0.348-0.185-0.527
	c-1.905-3.023-2.454-6.344-2.074-10.081c0.154-1.517-1.812-1.499-1.964,0c-0.364,3.571,0.105,6.98,1.617,9.99
	c-3.106-0.443-6.006-0.42-6.89-4.965c-0.135-0.692-0.937-1.161-1.442-0.709c-1.565,1.397-3.193,2.721-4.453,4.537
	c-0.808,1.164,0.574,2.853,1.388,1.678c0.886-1.275,1.952-2.289,3.049-3.27c0.867,2.55,2.477,4.091,4.943,4.643
	c3.905,0.874,7.48,0.378,9.777,5.112c0.092,0.19,0.209,0.314,0.334,0.408v21.148c-0.711-0.288-1.39-0.598-2.077-0.901
	c-0.047-0.081-0.081-0.165-0.151-0.239c-2.253-2.369-2.743-5.345-1.565-8.648c0.496-1.39-1.195-2.601-1.695-1.198
	c-0.284,0.797-0.5,1.592-0.645,2.375c-0.399-1.823-0.119-3.994,0.02-5.781c0.118-1.524-1.848-1.511-1.964,0
	c-0.283,3.657-0.5,7.411,1.909,9.958c0.116,0.629,0.287,1.244,0.524,1.838c-4.12-2.119-7.753-4.554-10.867-7.295
	c2.825-0.168,5.475-1.338,7.866-3.476c1.006-0.899,0.027-2.961-0.992-2.049c-2.774,2.48-5.938,3.685-9.389,3.044
	c-0.032-0.006-0.058,0.007-0.089,0.004c-0.651-0.674-1.279-1.363-1.873-2.069c0.135-0.381,0.34-0.903,0.491-1.294
	c0.801-2.045,1.069-2.734,0.519-3.443c-0.811-1.04-1.811-0.067-2.871,0.96c-0.163,0.159-0.387,0.375-0.585,0.555
	c-0.331-0.487-0.65-0.981-0.959-1.48c0.064-0.118,0.117-0.254,0.144-0.425c1.263-8.248-0.037-16.674-6.162-21.513
	c-0.021-0.017-0.042-0.025-0.063-0.04c-0.025-1.976,0.056-4,0.251-6.075c0.069-0.101,0.214-0.264,0.314-0.378
	c0.134-0.151,0.271-0.315,0.399-0.489c2.547-0.237,4.845,0.354,6.468,2.037c0.072,0.425,0.354,0.725,0.694,0.833
	c0.824,1.181,1.395,2.749,1.622,4.759c0.172,1.511,2.064,0.865,1.895-0.63c-0.271-2.398-0.984-4.277-2.004-5.708
	c0.836-1.846,2.577-2.494,4.329-2.283c1.261,0.152,1.248-2.223,0-2.374c-2.339-0.282-4.542,0.829-5.785,3.069
	c-1.884-1.577-4.344-2.192-6.968-2.058c-0.116-0.229-0.25-0.432-0.365-0.592c-0.032-0.045-0.065-0.089-0.096-0.132
	c0.597-3.735,1.45-6.894,2.112-9.014c0.278,0.029,0.703,0.134,0.96,0.199c0.95,0.235,2.027,0.503,2.456-0.639
	c0.14-0.374,0.545-1.462-1.627-4.423c0.385-0.913,0.778-1.798,1.174-2.642c0.849-1.813,1.733-3.492,2.572-4.915
	c0.048-0.037,0.207-0.098,0.313-0.138c0.17-0.064,0.371-0.143,0.571-0.263c3.84,1.928,4.508,5.902,3.368,9.722
	c-0.15,0.214-0.23,0.477-0.256,0.745c-0.555,1.537-1.378,3.023-2.397,4.308c-0.876,1.104,0.511,2.785,1.389,1.678
	c1.184-1.492,2.112-3.18,2.746-4.925c4.588-0.739,9.536-1.702,13.738,1.155c1.105,0.751,2.096-1.298,0.992-2.049
	c-0.93-0.632-1.885-1.097-2.858-1.436c-0.213-0.891-0.256-1.747-0.257-2.682c0-1.53-1.964-1.531-1.964,0
	c0.001,0.729,0.031,1.442,0.118,2.148c-2.969-0.51-6.059-0.086-9.091,0.386c0.845-4.437-0.383-8.836-4.561-11.115
	c0-0.031,0.003-0.067,0.004-0.097c0.003-0.091,0.002-0.182,0.009-0.265c3.278-4.54,6.804-7,10.419-7.316
	c0.062,0.016,0.226,0.121,0.334,0.19c0.109,0.07,0.233,0.145,0.363,0.214c0.684,3.358,1.608,6.614,2.866,9.729
	c0.556,1.375,2.248,0.171,1.695-1.198c-1.137-2.816-1.96-5.762-2.592-8.789c3.578,0.67,6.261,3.151,7.122,4.042V47.52z
	 M77.405,69.172c-0.637-6.096,0.376-12.231,4.406-16.198C81.38,58.873,79.907,64.287,77.405,69.172z M81.886,49.977
	c-6.125,4.838-7.426,13.266-6.162,21.513c0.026,0.171,0.079,0.308,0.144,0.425c-0.309,0.5-0.628,0.993-0.96,1.48
	c-0.197-0.18-0.421-0.396-0.584-0.555c-1.061-1.027-2.061-2-2.87-0.96c-0.552,0.709-0.283,1.398,0.517,3.443
	c0.153,0.391,0.357,0.913,0.492,1.294c-0.594,0.706-1.223,1.395-1.873,2.069c-0.03,0.003-0.057-0.01-0.089-0.004
	c-3.45,0.64-6.614-0.564-9.389-3.044c-1.021-0.912-1.997,1.149-0.991,2.049c2.391,2.138,5.04,3.308,7.865,3.476
	c-3.114,2.741-6.747,5.176-10.867,7.295c0.237-0.595,0.408-1.209,0.524-1.838c2.409-2.547,2.192-6.301,1.909-9.958
	c-0.116-1.511-2.082-1.524-1.964,0c0.139,1.787,0.419,3.958,0.02,5.781c-0.145-0.784-0.36-1.578-0.645-2.375
	c-0.5-1.402-2.191-0.192-1.695,1.198c1.178,3.304,0.688,6.28-1.565,8.648c-0.07,0.075-0.104,0.158-0.151,0.239
	c-0.688,0.304-1.366,0.613-2.078,0.901V69.906c0.126-0.093,0.243-0.218,0.335-0.408c2.297-4.734,5.872-4.238,9.777-5.112
	c2.467-0.551,4.076-2.092,4.943-4.643c1.097,0.981,2.163,1.995,3.049,3.27c0.814,1.174,2.195-0.514,1.388-1.678
	c-1.26-1.816-2.888-3.14-4.453-4.537c-0.506-0.452-1.308,0.017-1.442,0.709c-0.884,4.545-3.783,4.521-6.89,4.965
	c1.512-3.009,1.981-6.418,1.617-9.99c-0.152-1.499-2.117-1.517-1.964,0c0.38,3.737-0.169,7.057-2.074,10.081
	c-0.114,0.18-0.168,0.357-0.185,0.527c-1.606,0.581-2.977,1.538-4.102,2.987V49.776c4.541-1.059,9.091-1.794,13.725-1.841
	c0.845-0.009,1.113-1.059,0.831-1.759c0.096-0.352,0.033-0.745-0.3-1.058c-1.786-1.678-3.757-2.962-5.998-3.47
	c-1.237-0.28-1.766,2.007-0.522,2.289c1.325,0.3,2.56,0.896,3.705,1.707c-3.848,0.216-7.649,0.859-11.44,1.723v-34.84
	c0.862-0.89,3.545-3.372,7.123-4.042c-0.632,3.027-1.455,5.973-2.592,8.789c-0.553,1.37,1.14,2.573,1.695,1.198
	c1.258-3.115,2.183-6.37,2.866-9.729c0.13-0.069,0.254-0.144,0.363-0.213c0.108-0.069,0.272-0.174,0.334-0.19
	c3.615,0.316,7.141,2.776,10.419,7.316c0.007,0.083,0.006,0.174,0.009,0.265c0.001,0.03,0.004,0.065,0.005,0.097
	c-4.179,2.279-5.406,6.678-4.562,11.115c-3.031-0.472-6.122-0.896-9.091-0.386c0.087-0.707,0.117-1.419,0.118-2.148
	c0-1.531-1.964-1.53-1.964,0c-0.001,0.935-0.044,1.791-0.257,2.682c-0.974,0.338-1.929,0.804-2.858,1.436
	c-1.104,0.75-0.113,2.8,0.992,2.049c4.202-2.857,9.15-1.894,13.737-1.155c0.634,1.745,1.563,3.433,2.747,4.925
	c0.878,1.106,2.265-0.574,1.389-1.678c-1.02-1.285-1.843-2.771-2.398-4.308c-0.024-0.269-0.105-0.532-0.255-0.745
	c-1.14-3.82-0.472-7.794,3.368-9.723c0.2,0.12,0.401,0.198,0.571,0.263c0.106,0.04,0.266,0.101,0.313,0.138
	c0.84,1.424,1.725,3.102,2.573,4.915c0.396,0.844,0.789,1.729,1.174,2.642c-2.172,2.961-1.766,4.049-1.627,4.423
	c0.429,1.143,1.506,0.874,2.456,0.639c0.257-0.064,0.682-0.17,0.96-0.199c0.662,2.12,1.516,5.279,2.112,9.014
	c-0.03,0.043-0.064,0.087-0.096,0.132c-0.115,0.16-0.249,0.362-0.366,0.592c-2.623-0.135-5.083,0.481-6.967,2.058
	c-1.244-2.241-3.446-3.351-5.786-3.069c-1.248,0.15-1.259,2.525,0,2.373c1.753-0.211,3.494,0.437,4.33,2.283
	c-1.02,1.431-1.731,3.311-2.004,5.708c-0.17,1.496,1.723,2.142,1.895,0.63c0.228-2.011,0.798-3.579,1.622-4.759
	c0.341-0.108,0.622-0.407,0.693-0.833c1.624-1.682,3.922-2.273,6.469-2.037c0.129,0.174,0.266,0.338,0.399,0.489
	c0.101,0.114,0.245,0.277,0.314,0.378c0.195,2.075,0.276,4.1,0.251,6.075C81.928,49.952,81.906,49.96,81.886,49.977z"/>
</svg>
