<?xml version="1.0" encoding="utf-8"?>
<!-- Generator: Adobe Illustrator 17.0.0, SVG Export Plug-In . SVG Version: 6.00 Build 0)  -->
<!DOCTYPE svg PUBLIC "-//W3C//DTD SVG 1.1//EN" "http://www.w3.org/Graphics/SVG/1.1/DTD/svg11.dtd">
<svg version="1.1" id="Capa_1" xmlns="http://www.w3.org/2000/svg" xmlns:xlink="http://www.w3.org/1999/xlink" x="0px" y="0px"
	 width="52px" height="52px" viewBox="0 0 52 52" enable-background="new 0 0 52 52" xml:space="preserve">
<g>
	<path fill="#1D1D1B" d="M21.899,33.846c0.172,1.587,1.723,2.922,3.327,2.748c2.673-0.274,3.292-3.417,3.525-4.6
		c0.111-0.566,0.659-0.769,1.548-1.033c0.362-0.107,0.735-0.219,1.056-0.386c2.331-1.218,3.217-3.748,2.256-6.447l-0.124-0.352
		c-0.544-1.54-0.817-2.313-2.39-3.371c-0.247-0.167-0.536-0.346-0.846-0.539c-1.175-0.731-2.636-1.641-3.149-2.642
		c-0.3-0.584-0.201-0.641,0.344-0.958l0.188-0.111c1.085-0.665,1.23-1.834,1.358-2.865c0.127-1.02,0.236-1.9,1.106-2.354
		c0.895-0.466,1.948-0.712,3.045-0.712c2.151,0,4.187,0.916,5.442,2.449c1.188,1.449,1.075,3.739,0.808,5.787
		c-1.237,9.481-5.61,14.12-7.478,16.099c-0.837,0.889-1.258,1.335-0.936,1.828c0.117,0.179,0.313,0.282,0.54,0.282
		c1.4,0,6.294-5.426,7.671-8.166c0.816-1.626,1.101-3.395,1.376-5.106l0.064-0.398c0.064-0.39,0.135-0.795,0.208-1.213
		c0.754-4.3,1.786-10.189-3.113-12.777c-1.161-0.611-2.747-0.993-3.952-0.938c-2.701,0.118-5.637,1.627-7.479,3.846
		c-1.43,1.721-2.041,3.649-1.767,5.577c0.314,2.218,1.905,3.523,3.444,4.786c0.913,0.75,1.777,1.458,2.384,2.342
		c0.288,0.42,1.006,2.022,0.885,2.72c-0.07-0.15-0.14-0.347-0.178-0.453c-0.048-0.134-0.09-0.25-0.127-0.327
		c-1.001-2.096-4.657-3.024-4.873-3.024c-0.152,0-0.297,0.073-0.387,0.196c-0.09,0.123-0.117,0.282-0.071,0.427
		c0.75,2.368-0.123,3.985-1.934,6.033C22.856,31.116,21.74,32.38,21.899,33.846z"/>
	<path fill="#1D1D1B" d="M45.513,6.94C43.078,3.438,39.067,1.43,34.51,1.43c-2.352,0-4.82,0.543-7.138,1.57
		c-3.877,1.719-8.666,7.609-8.991,10.343c-0.008,0.072-0.005,0.157,0.019,0.268c0.157,0.755,0.67,1.636,1.598,1.636
		c0.199,0,0.396-0.043,0.58-0.126c0.405-0.178,0.717-0.569,1.844-2.035c1.518-1.969,4.057-5.265,6.064-6.294
		c1.665-0.855,3.351-1.288,5.011-1.288c4.83,0,8.107,3.577,8.66,5.069c0.893,2.401,3.165,13.772-2.992,21.49
		c-0.865,1.085-1.91,2.057-3.288,3.059c-1.809,1.312-3.383,2.555-4.334,4.466c-0.193,0.387-0.374,0.78-0.556,1.176
		c-0.6,1.307-1.166,2.54-2.167,3.444c-1.225,1.106-2.628,1.749-3.949,1.811c-2.262,0.086-4.478-1.139-5.7-3.174
		c-0.622-1.035-1.333-2.602-1.462-3.894c-0.123-1.223-0.098-2.534-0.073-3.813c0.069-1.613,0.177-4.069,0.182-4.169
		c0.051-0.301-0.017-0.976-0.42-1.507c-0.29-0.38-0.69-0.606-1.18-0.654l-0.15-0.008c-0.588,0-1.345,0.282-1.609,1.622l-0.016,0.083
		c-0.447,1.651-2.473,10.157,1.595,15.474c2.126,2.778,5.502,4.188,10.032,4.188c1.95,0,4.195-0.922,5.859-2.406
		c1.397-1.247,2.245-3.392,2.937-5.14c0.307-0.773,0.653-1.648,0.879-1.916c0.328-0.388,1.557-1.356,2.745-2.293
		c1.94-1.529,4.14-3.262,4.854-4.32c0.931-1.381,1.479-2.978,2.014-4.536l0.059-0.17c0.139-0.403,0.276-0.803,0.422-1.193
		C49.085,19.46,48.97,11.914,45.513,6.94z"/>
</g>
</svg>
