<?xml version="1.0" encoding="UTF-8" standalone="no"?>
<!-- Created with Inkscape (http://www.inkscape.org/) -->

<svg
   xmlns:dc="http://purl.org/dc/elements/1.1/"
   xmlns:cc="http://creativecommons.org/ns#"
   xmlns:rdf="http://www.w3.org/1999/02/22-rdf-syntax-ns#"
   xmlns:svg="http://www.w3.org/2000/svg"
   xmlns="http://www.w3.org/2000/svg"
   version="1.1"
   width="585"
   height="360"
   id="svg2"
   xml:space="preserve"><metadata
     id="metadata8"><rdf:RDF><cc:Work
         rdf:about=""><dc:format>image/svg+xml</dc:format><dc:type
           rdf:resource="http://purl.org/dc/dcmitype/StillImage" /><dc:title></dc:title></cc:Work></rdf:RDF></metadata><defs
     id="defs6" /><g
     transform="matrix(1.25,0,0,-1.25,0,360)"
     id="g10"><g
       id="g12" /><g
       id="g14"><g
         transform="matrix(0.24,0,0,-0.24,0,288)"
         id="g16"><path
           d="m 175,541 0,-1 1,1 1,-1 1,1 1,-1 1,1 1,-1 1,1 1,-1 1,1 1,-1 1,1 1,-1 1,1 1,-1 1,1 1,-1 1,1 1,-1 1,1 1,-1 1,1 1,-1 1,1 1,-1 1,1 1,-1 1,1 1,-1 1,1 1,-1 1,1 1,-1 1,1 1,-1 1,1 1,-1 1,1 1,-1 1,1 1,-1 1,1 1,-1 1,1 1,-1 1,1 1,-1 1,1 1,-1 1,1 1,-1 1,1 1,-1 1,1 1,-1 1,0 1,1 1,-1 1,1 1,-1 1,1 1,-1 1,1 1,-1 1,1 1,-1 1,1 1,-1 1,1 1,-1 1,1 1,-1 1,1 1,-1 1,1 1,-1 0,0 1,0 1,0 1,1 1,-1 1,1 0,0 1,-1 1,1 1,-1 1,0 1,0 1,-1 1,1 0,0 1,2 1,1 1,-1 1,-2 1,-5 1,-6 1,1 0,-2 1,2 0,15 1,17 1,2 1,-1 0,-15 1,-18 1,-11 1,1 0,-3 1,3 0,11 1,13 1,10 1,5 1,-4 1,-10 1,-14 1,-9 1,1 0,-2 1,2 0,13 1,16 1,8 1,-5 1,-14 1,-14 1,-5 1,1 0,8 1,15 1,11 1,-2 0,3 1,-3 0,-13 1,-15 1,-5 1,10 1,17 1,12 1,-4 0,5 1,-5 0,-17 1,-18 1,-5 1,12 1,22 1,17 1,-6 0,7 1,-7 0,-23 1,-21 1,-6 1,1 0,12 1,27 1,26 1,-9 0,11 1,-11 0,-32 1,-25 1,-7 1,12 1,30 1,38 1,8 1,-4 0,-39 1,-29 1,-18 1,-6 1,1 0,13 1,30 1,40 1,38 1,-42 1,-72 1,-23 1,17 0,32 1,-11 0,14 1,-8 0,-13 1,3 0,16 1,-14 0,72 1,-26 0,74 1,-43 0,53 1,-18 0,-135 1,-65 1,54 0,43 1,-2 0,54 1,-29 0,38 1,-12 0,-56 1,21 0,-49 1,15 0,47 1,-16 0,27 1,-31 0,36 1,-15 0,30 1,-21 0,26 1,-7 0,-46 1,3 0,-26 1,17 0,-13 1,2 0,-33 1,-29 1,12 0,-55 1,45 0,324 1,-136 0,178 1,-106 0,-321 1,34 0,-139 1,139 0,229 1,-28 0,85 1,-268 1,-121 1,80 0,130 1,-42 0,60 1,-34 0,259 1,-115 0,145 1,-111 0,-298 1,10 0,-113 1,113 0,246 1,-32 0,61 1,-36 0,-263 1,42 0,-99 1,94 0,102 1,-58 0,389 1,-188 0,252 1,-117 0,-449 1,16 0,-135 1,-5 0,311 1,220 1,-64 0,-304 1,-109 1,8 0,214 1,-15 0,270 1,-99 0,218 1,-292 0,299 1,-299 0,-306 1,260 0,-307 1,281 0,272 1,-43 0,-230 1,-203 1,154 0,-168 1,131 0,242 1,-21 0,195 1,-173 0,204 1,-168 0,-408 1,190 0,-230 1,230 0,254 1,-1 0,-188 1,-230 1,91 0,-123 1,115 0,244 1,213 1,-162 0,174 1,-137 0,-448 1,160 0,-200 1,200 0,246 1,-159 0,162 1,-162 0,-179 1,78 0,-96 1,87 0,314 1,-98 0,215 1,-9 0,-242 1,-305 1,141 0,-177 1,163 0,204 1,-8 0,-134 1,-91 1,71 0,-73 1,46 0,248 1,142 1,-137 0,-260 1,-137 1,36 0,186 1,64 1,-122 1,55 0,-82 1,68 0,168 1,-19 0,99 1,-8 0,-204 1,-152 1,70 0,-92 1,85 0,97 1,-9 0,-54 1,21 0,-33 1,28 0,129 1,70 1,-14 0,-119 1,1 0,-126 1,16 0,-50 1,46 0,58 1,-23 0,28 1,-25 0,45 1,-24 0,69 1,76 1,-49 1,-109 1,8 0,-46 1,8 0,-22 1,22 0,42 1,-20 0,45 1,-24 0,45 1,-14 0,54 1,-39 0,57 1,-26 0,-48 1,3 0,-57 1,12 0,-22 1,-11 0,62 1,-16 0,62 1,-18 0,-54 1,-12 0,68 1,-30 0,62 1,-3 0,-68 1,37 0,-72 1,34 0,-33 1,-6 0,85 1,-45 0,58 1,-39 0,76 1,-33 0,-78 1,29 0,-61 1,23 0,62 1,-56 0,62 1,-11 0,-84 1,-16 0,102 1,-60 0,80 1,-53 0,88 1,-51 0,76 1,-40 0,-83 1,49 0,-90 1,77 0,-80 1,24 0,97 1,-30 0,-82 1,63 0,-101 1,20 0,105 1,-25 0,105 1,-18 0,-65 1,22 0,-88 1,53 0,-86 1,-2 0,137 1,-115 0,137 1,-46 0,-120 1,87 0,-99 1,4 0,170 1,-101 0,140 1,-132 1,45 0,-87 1,-36 0,154 1,-14 0,-103 1,28 0,78 1,-51 0,-71 1,-10 0,118 1,-3 0,-115 1,41 0,87 1,-79 0,81 1,-84 1,83 0,-66 1,-20 0,99 1,-117 1,81 0,-71 1,44 0,-65 1,5 0,75 1,-68 0,101 1,-76 0,92 1,-11 0,-118 1,38 0,85 1,-83 0,93 1,-128 0,144 1,-45 0,-105 1,100 0,-115 1,89 0,-64 1,13 0,73 1,-56 0,77 1,-7 0,-83 1,16 0,78 1,-85 0,119 1,-39 0,-78 1,50 0,-86 1,84 1,-91 0,116 1,-3 0,-77 1,-17 0,109 1,-115 0,122 1,-114 0,124 1,-3 0,-121 1,104 1,-3 0,-101 1,82 0,-80 1,-18 0,100 1,-2 0,-91 1,78 0,-59 1,29 0,47 1,-54 0,60 1,-78 0,91 1,-24 0,-51 1,8 0,94 1,-118 1,44 0,-79 1,71 0,-63 1,30 0,54 1,-52 0,100 1,-95 0,97 1,-15 0,-136 1,40 0,102 1,-106 0,126 1,-19 0,-101 1,72 0,-94 1,92 0,-102 1,44 0,74 1,-74 1,-23 0,101 1,-33 0,-68 1,15 0,61 1,-37 0,73 1,-14 0,-83 1,57 0,-90 1,88 0,-77 1,14 0,94 1,-105 0,118 1,-37 0,-53 1,-24 0,87 1,-77 0,95 1,-101 0,113 1,-22 0,-92 1,75 0,-82 1,-1 0,98 1,-107 0,109 1,-9 0,-85 1,-27 0,129 1,-2 0,-103 1,102 0,-82 1,12 0,84 1,-142 0,152 1,-18 0,-151 1,149 0,-141 1,133 0,-76 1,-29 0,109 1,-7 0,-107 1,14 0,97 1,-67 0,87 1,-90 1,51 0,-101 1,4 0,118 1,-15 0,-102 1,26 0,85 1,-89 0,93 1,-25 0,-68 1,19 0,66 1,-51 0,65 1,-19 0,-49 1,45 0,-77 1,65 0,-57 1,-6 0,91 1,-17 0,-44 1,40 0,-58 1,45 0,-46 1,2 0,80 1,-50 1,34 0,-47 1,31 0,-47 1,33 0,-30 1,1 0,47 1,-33 0,37 1,-6 0,-40 1,27 0,-29 1,19 0,30 1,-32 0,33 1,-12 0,-24 1,-18 0,46 1,-41 1,29 0,-24 1,30 1,-7 0,-20 1,3 0,20 1,-17 0,23 1,-23 0,28 1,-2 0,-23 1,-3 0,30 1,-13 0,-17 1,18 1,-8 0,-16 1,8 0,-22 1,18 1,-4 0,-36 1,17 0,100 1,-15 0,71 1,-25 0,-116 1,-83 1,56 0,-46 1,46 0,76 1,-30 0,36 1,-15 0,-47 1,9 0,-27 1,-3 0,52 1,107 1,-21 0,59 1,-45 0,-162 1,-88 1,33 0,93 1,87 1,-19 0,29 1,-21 0,-68 1,2 0,-60 1,14 0,75 1,-6 0,60 1,-24 0,28 1,-16 0,-56 1,-65 1,-25 1,19 0,49 1,-1 0,77 1,-30 0,71 1,-36 0,47 1,-39 0,-127 1,-51 1,44 0,88 1,-13 0,42 1,-4 0,-42 1,4 0,-51 1,26 0,-40 1,27 0,58 1,-2 0,29 1,-6 0,-58 1,-42 1,37 0,-44 1,44 0,51 1,-3 0,17 1,-8 0,-59 1,-55 1,15 0,-23 1,23 0,73 1,30 1,-11 0,17 1,-16 0,-54 1,-47 1,9 0,-16 1,13 0,54 1,52 1,-16 0,24 1,-24 0,-61 1,-34 1,1 0,40 1,28 1,-17 0,20 1,-5 0,23 1,-3 0,15 1,-9 0,-51 1,1 0,-26 1,26 0,-19 1,19 0,36 1,-17 0,22 1,-17 0,-47 1,1 0,-24 1,7 0,114 1,-28 0,108 1,-115 1,-125 1,7 0,-48 1,48 0,112 1,-6 0,69 1,-27 0,28 1,-28 0,-83 1,-54 1,40 0,-46 1,44 0,60 1,53 1,-11 0,18 1,-12 0,-66 1,-56 1,12 0,-15 1,11 0,5 1,-29 0,48 1,131 1,64 1,-19 0,-184 1,-125 1,101 0,-54 1,54 0,104 1,35 1,-69 0,85 1,-83 0,-116 1,48 0,-53 1,53 0,77 1,-7 0,44 1,-5 0,38 1,-52 0,63 1,-63 0,-92 1,7 0,-33 1,24 0,75 1,-8 0,12 1,-10 0,-76 1,-43 1,22 0,65 1,166 1,-15 0,75 1,-44 0,-185 1,-153 1,84 0,-58 1,58 0,128 1,-14 0,51 1,-48 0,-103 1,7 0,-29 1,29 0,94 1,-17 0,94 1,-28 0,84 1,-26 0,-116 1,5 0,-130 1,9 0,-41 1,41 0,105 1,-9 0,46 1,-37 0,-86 1,57 0,-66 1,16 0,88 1,-20 0,88 1,-13 0,99 1,-83 0,90 1,-90 0,-175 1,-72 1,22 0,115 1,-7 0,43 1,-1 0,-45 1,-28 0,88 1,-1 0,-73 1,25 0,96 1,-24 0,79 1,-37 0,67 1,-48 0,-162 1,3 0,-78 1,8 0,80 1,45 1,-39 0,41 1,-10 0,-56 1,92 1,-50 0,57 1,-8 0,75 1,-22 0,53 1,-16 0,-119 1,-125 1,21 0,-35 1,33 0,74 1,-5 0,54 1,-11 0,-61 1,94 1,-71 0,72 1,-2 0,-46 1,8 0,77 1,-2 0,56 1,-51 0,-130 1,1 0,-79 1,62 0,-70 1,66 0,72 1,-51 0,80 1,-96 0,102 1,-90 0,97 1,-68 0,72 1,-39 0,45 1,-34 0,37 1,-34 0,52 1,-43 0,-89 1,18 0,-55 1,-6 0,61 1,-26 0,68 1,-47 0,49 1,-70 0,107 1,-4 0,-60 1,58 0,-46 1,36 0,-39 1,45 1,-20 0,40 1,-12 0,-36 1,4 0,-64 1,31 0,-67 1,-6 0,94 1,-76 0,106 1,-96 0,119 1,-93 0,116 1,-102 0,107 1,-34 0,-77 1,72 0,-85 1,32 0,56 1,-39 0,50 1,-19 0,-79 1,15 0,-49 1,6 0,61 1,-64 0,83 1,-44 0,69 1,-64 0,80 1,-6 0,-60 1,35 0,-41 1,-10 0,59 1,-34 0,50 1,-23 0,29 1,-19 0,-64 1,4 0,-33 1,8 0,38 1,-17 0,48 1,-53 0,72 1,-14 0,-57 1,52 0,-38 1,3 0,44 1,-6 0,-49 1,9 0,64 1,-24 0,42 1,-9 0,-55 1,-36 1,34 0,-57 1,29 0,39 1,-1 0,-35 1,-3 0,47 1,-56 0,68 1,-55 0,62 1,-57 0,63 1,-4 0,-56 1,44 0,36 1,-17 0,-45 1,9 0,-40 1,18 0,-34 1,22 0,32 1,-16 0,-33 1,-7 0,54 1,-29 0,50 1,-6 0,-38 1,37 0,-36 1,18 0,68 1,-8 0,32 1,-22 0,-79 1,5 0,-77 1,45 1,29 1,-1 0,-28 1,1 0,30 1,-14 0,53 1,-4 0,-34 1,24 0,-31 1,3 0,68 1,39 1,-30 0,-93 1,-59 1,33 0,-31 1,29 0,37 1,-11 0,14 1,-14 0,31 1,-9 0,46 1,-34 0,39 1,-22 0,-45 1,2 0,79 1,-7 0,49 1,-34 0,-109 1,-69 1,58 0,-53 1,53 0,65 1,-14 0,25 1,-11 0,-38 1,14 0,26 1,-7 0,29 1,-11 0,-52 1,-1 0,68 1,69 1,-29 0,-99 1,-108 1,62 1,79 1,32 1,-16 0,-42 1,14 0,-20 1,-1 0,27 1,-6 0,-30 1,-9 0,74 1,-9 0,87 1,-8 0,-100 1,-115 1,40 0,-57 1,57 0,102 1,-13 0,33 1,-25 0,-50 1,5 0,-13 1,3 0,22 1,-16 0,19 1,-35 0,61 1,85 1,-35 0,49 1,-49 0,-154 1,4 0,-54 1,52 0,94 1,38 1,-13 0,-40 1,-42 1,32 1,-10 0,22 1,-8 0,-32 1,-3 0,113 1,57 1,-34 0,-140 1,-89 1,16 0,77 1,71 1,-20 0,30 1,-28 0,-42 1,15 0,-19 1,19 0,29 1,-1 0,-26 1,-34 0,90 1,-24 0,95 1,-69 0,71 1,-71 0,-127 1,-43 1,28 0,88 1,-4 0,49 1,-10 0,-34 1,2 0,-18 1,34 1,-18 0,41 1,-10 0,-36 1,19 0,-25 1,10 0,41 1,-14 0,25 1,-25 0,-49 1,-16 1,29 1,-1 0,24 1,-18 1,6 0,-9 1,8 0,17 1,6 1,-2 0,-14 1,3 0,-8 1,3 0,9 1,-13 1,1 0,-16 1,14 1,15 1,-11 0,12 1,-11 0,-12 1,1 0,11 1,11 1,-1 0,-9 1,1 0,-8 1,10 1,3 1,-3 0,-13 1,3 0,-8 1,7 0,15 1,-7 1,-11 1,13 1,13 1,-16 1,-14 1,11 0,-13 1,13 0,10 1,-12 1,2 0,-7 1,7 0,18 1,-4 0,5 1,-5 0,-25 1,1 0,-7 1,7 0,22 1,5 1,-5 0,-16 1,-2 1,2 0,9 1,-8 0,9 1,-9 0,-4 1,3 0,21 1,8 1,-5 0,-25 1,-14 1,18 1,11 1,-10 1,-3 1,1 0,12 1,-3 0,6 1,-6 0,-12 1,7 1,13 1,-13 1,-16 1,6 0,-7 1,7 0,17 1,5 1,-1 0,-8 1,-3 1,-1 1,-3 1,4 1,7 1,-6 1,-10 1,3 1,11 1,5 1,-4 1,-4 1,-5 1,-6 1,4 1,9 1,3 1,-2 0,-7 1,1 0,-2 1,2 0,5 1,2 1,-1 0,-4 1,1 0,-2 1,-4 1,-3 1,1 0,4 1,9 1,-2 0,3 1,-3 0,-6 1,1 0,-3 1,3 0,5 1,-3 1,-5 1,2 1,2 1,-2 1,-2 1,1 0,5 1,3 1,-5 1,1 0,-5 1,2 1,1 1,1 1,-2 1,1 0,2 1,1 1,-3 1,-1 1,1 0,2 1,2 1,-1 0,-5 1,-2 1,4 1,3 1,-1 1,-2 1,2 0,-1 1,1 1,-2 1,1 0,-2 1,1 1,-1 1,1 0,-2 1,2 1,3 1,1 1,-1 0,-3 1,2 0,-4 1,-5 0,15 1,-20 0,37 1,-1 0,-34 1,19 0,-20 1,18 0,-14 1,-4 0,27 1,-28 0,32 1,-39 0,44 1,-19 0,-30 1,36 1,-17 0,33 1,-13 0,-40 1,40 0,-36 1,19 0,48 1,-12 0,-71 1,39 0,-54 1,38 0,63 1,-12 0,-41 1,10 0,-51 1,17 0,57 1,-2 0,-36 1,35 0,-48 1,33 0,-22 1,-3 0,32 1,-32 0,34 1,-1 0,-28 1,18 0,-20 1,-3 0,23 1,-25 0,32 1,-30 0,36 1,-11 0,-33 1,10 0,25 1,-2 0,-25 1,-10 0,40 1,-23 0,24 1,-24 0,25 1,-1 0,-31 1,25 0,-22 1,21 0,-30 1,-2 0,39 1,-26 0,31 1,-9 0,-24 1,22 0,-24 1,23 0,-18 1,-6 0,26 1,-7 0,-15 1,6 0,15 1,-17 1,10 0,-15 1,19 1,-18 0,22 1,-2 0,-25 1,8 0,21 1,-1 0,-22 1,13 0,-19 1,8 0,17 1,-13 0,14 1,-5 0,-21 1,9 0,20 1,-3 0,-17 1,-1 0,24 1,-15 0,-21 1,4 0,25 1,-14 0,16 1,-8 0,-14 1,-1 0,18 1,-2 0,-8 1,-2 0,12 1,-3 0,-12 1,4 0,22 1,-11 0,-24 1,-1 0,26 1,-19 0,28 1,-11 0,-17 1,16 0,-12 1,2 0,24 1,-17 0,-25 1,24 0,12 1,-16 0,36 1,-33 0,-21 1,18 0,28 1,-33 0,36 1,-15 0,-35 1,10 0,36 1,-4 0,-23 1,4 0,-29 1,13 0,40 1,-1 0,-43 1,34 0,-36 1,11 0,31 1,-10 0,-19 1,-1 0,21 1,-3 0,-33 1,40 1,-10 0,-35 1,9 0,39 1,-56 0,59 1,-41 0,47 1,-50 0,60 1,-30 0,-44 1,44 0,26 1,-7 0,-57 1,53 0,-40 1,9 0,31 1,-4 0,-37 1,3 0,35 1,-19 0,22 1,-11 0,-32 1,28 0,-19 1,4 0,24 1,-35 0,38 1,-18 0,-21 1,10 0,28 1,-37 0,43 1,-22 0,-31 1,31 0,34 1,-29 0,-52 1,26 0,39 1,-30 0,37 1,-15 0,-30 1,-6 0,40 1,-19 0,32 1,-27 0,-35 1,28 0,23 1,-11 0,-33 1,11 0,38 1,-40 1,38 0,-40 1,20 0,22 1,-14 0,-14 1,12 0,-17 1,1 0,-10 1,4 0,9 1,-4 0,-15 1,-4 0,21 1,-4 0,-41 1,-11 0,407 1,-88 0,-368 1,210 0,-354 1,250 0,106 1,-106 0,-180 1,123 0,105 1,-19 0,-114 1,95 0,-39 1,-203 0,757 1,-393 0,398 1,-398 0,-537 1,383 0,180 1,-364 1,249 0,-141 1,49 0,131 1,-49 0,-78 1,-45 0,144 1,-63 0,-65 1,-93 0,594 1,-345 0,410 1,-393 0,-495 1,279 0,314 1,-38 0,-402 1,271 0,-219 1,105 0,214 1,-157 0,-57 1,-3 0,145 1,-80 0,-72 1,-76 0,705 1,-457 0,473 1,-463 0,-504 1,365 0,276 1,-45 0,-433 1,319 0,-249 1,99 0,216 1,-155 0,-62 1,40 0,128 1,-128 0,-21 1,-95 0,599 1,-352 0,458 1,-441 0,-511 1,248 0,372 1,-21 0,-433 1,258 0,-237 1,139 0,212 1,-184 0,-28 1,28 0,121 1,-97 0,-24 1,-94 0,390 1,-143 0,412 1,-386 0,-502 1,107 0,443 1,-394 0,402 1,-219 0,-194 1,194 0,161 1,-136 0,-51 1,1 0,144 1,-66 0,-57 1,-89 0,154 1,445 1,-315 0,-518 1,5 0,514 1,-259 0,299 1,-260 0,-125 1,97 0,198 1,-32 0,-108 1,91 0,-119 1,102 0,-88 1,27 0,-104 1,1 0,572 1,-209 0,-552 1,421 0,-451 1,361 0,179 1,-179 0,-164 1,29 0,214 1,-142 1,105 0,-131 1,30 0,108 1,-68 0,-85 1,3 0,467 1,-103 0,-445 1,229 0,-356 1,313 0,152 1,-70 0,-206 1,153 0,-179 1,121 0,63 1,-30 0,-83 1,20 0,83 1,-45 0,-89 1,45 0,358 1,-34 0,-329 1,55 0,-211 1,211 0,122 1,-16 0,-192 1,75 0,-102 1,90 0,33 1,-6 0,-38 1,8 0,42 1,-37 0,-29 1,11 0,257 1,-104 0,133 1,-133 0,-246 1,147 0,-103 1,37 0,101 1,-90 0,-37 1,10 0,33 1,-3 0,42 1,-15 0,35 1,-35 0,-36 1,11 0,128 1,108 1,-34 0,-226 1,51 0,-50 1,22 0,29 1,-23 0,-16 1,3 0,-14 1,6 0,43 1,49 1,-2 0,-56 1,2 0,69 1,36 1,-23 0,-56 1,42 0,-39 1,35 0,-89 1,-17 1,17 0,-6 1,-3 0,14 1,42 1,-18 0,19 1,-11 0,67 1,13 1,-6 0,-68 1,26 0,-23 1,11 0,-54 1,28 0,-32 1,1 0,35 1,-11 0,-34 1,34 0,49 1,-8 0,-48 1,-2 0,51 1,-5 0,39 1,-5 0,-47 1,23 0,-45 1,40 0,-50 1,36 0,-49 1,-9 0,58 1,-9 0,-42 1,25 0,52 1,-18 0,-49 1,-4 0,56 1,-20 0,66 1,-10 0,-68 1,27 0,-37 1,-7 0,64 1,-20 0,-65 1,59 0,-48 1,6 0,48 1,-64 0,79 1,-48 0,55 1,-69 0,75 1,-63 0,95 1,-30 0,-49 1,30 0,-54 1,44 0,-54 1,-1 0,59 1,-47 0,61 1,-94 0,101 1,-20 0,-52 1,19 0,54 1,-17 0,-61 1,4 0,89 1,-16 0,-47 1,34 0,-73 1,-22 0,112 1,-29 0,-69 1,7 0,67 1,-49 0,53 1,-70 0,83 1,-43 0,51 1,-5 0,-86 1,10 0,88 1,-70 0,76 1,-41 0,-66 1,20 0,49 1,-85 0,108 1,-28 0,-47 1,62 1,-59 0,60 1,-42 0,50 1,-15 0,-58 1,6 0,58 1,-59 0,96 1,-24 0,-75 1,53 0,-81 1,77 0,-41 1,-24 0,84 1,-73 0,75 1,-75 0,77 1,-68 0,74 1,-1 0,-75 1,62 0,-100 1,25 0,94 1,-9 0,-89 1,74 0,-59 1,55 0,-67 1,63 0,-57 1,-14 0,91 1,-61 0,67 1,-8 0,-64 1,-2 0,76 1,-17 0,-69 1,15 0,54 1,-56 0,69 1,-25 0,-62 1,18 0,57 1,-1 0,-68 1,6 0,88 1,-91 1,74 0,-62 1,-16 0,85 1,-18 0,-72 1,71 0,-62 1,-5 0,83 1,-19 0,-54 1,-3 0,62 1,-70 0,72 1,-71 0,76 1,-77 0,100 1,-28 0,-53 1,-1 0,65 1,-20 0,-55 1,3 0,69 1,-89 0,94 1,-13 0,-64 1,46 0,-40 1,10 0,35 1,-47 1,4 0,47 1,-1 0,-38 1,3 0,50 1,-10 0,-64 1,64 0,-56 1,53 0,-70 1,-12 0,111 1,-17 0,-61 1,42 0,-45 1,-3 0,62 1,-78 0,87 1,-76 0,100 1,-19 0,-87 1,-6 0,93 1,-92 0,109 1,-24 0,-76 1,-56 0,141 1,-105 0,137 1,-31 0,-79 1,-26 0,128 1,-5 0,-167 1,53 0,123 1,-7 0,-106 1,90 0,-103 1,99 0,-87 1,79 0,-88 1,76 0,-59 1,-16 0,90 1,-4 0,-70 1,62 0,-55 1,-7 0,68 1,-15 0,-55 1,16 0,42 1,-55 1,46 0,-45 1,38 0,-23 1,21 0,-16 1,-8 0,31 1,-3 0,-27 1,7 0,23 1,-2 0,-18 1,14 0,-12 1,5 0,8 1,-2 0,-13 1,7 0,-8 1,1 0,10 1,-10 0,12 1,-1 0,-12 1,-2 0,16 1,-7 0,10 1,-2 0,-11 1,10 0,-11 1,10 0,-7 1,-4 0,14 1,-7 0,-8 1,-1 0,9 1,-11 0,16 1,-1 0,-10 1,9 0,-12 1,5 0,10 1,-11 1,1 0,11 1,-2 0,-12 1,11 0,-10 1,8 0,-12 1,7 0,-5 1,2 0,7 1,-6 0,8 1,-8 0,11 1,-1 0,-7 1,5 0,-10 1,11 1,-1 0,-8 1,5 0,-7 1,6 0,-9 1,9 0,-5 1,8 1,-5 0,7 1,-3 0,-6 1,4 0,7 1,-3 0,-7 1,6 0,-5 1,3 0,-6 1,6 0,-4 1,-1 0,5 1,-2 0,-4 1,1 0,5 1,-2 0,5 1,-2 0,-5 1,2 0,7 1,-3 0,-7 1,7 1,-1 0,-5 1,3 0,-4 1,-2 0,7 1,-5 1,4 0,-3 1,1 0,6 1,-2 0,-6 1,11 1,-2 0,-7 1,-27 0,59 1,-11 0,-48 1,43 0,-40 1,32 0,-13 1,-1 0,14 1,-2 0,-12 1,12 0,-13 1,7 0,6 1,-8 0,9 1,-1 0,-7 1,5 0,-9 1,2 0,10 1,-11 1,1 0,11 1,-16 0,19 1,-4 0,-18 1,2 0,45 1,-6 0,-54 1,40 0,-47 1,38 0,16 1,-10 0,-23 1,17 0,-31 1,14 0,18 1,-12 0,17 1,-19 0,28 1,-13 0,-22 1,9 0,22 1,-35 1,22 0,-32 1,29 0,16 1,-4 0,-14 1,3 0,-13 1,3 0,14 1,-6 0,8 1,-4 0,-8 1,4 0,-7 1,4 0,3 1,-7 1,3 0,20 1,-2 0,10 1,-10 0,-30 1,1 0,-7 1,7 0,24 1,-3 0,4 1,-4 0,-14 1,10 0,-6 1,5 0,6 1,-6 0,-16 1,-2 0,26 1,26 1,-3 0,-44 1,-19 1,9 0,36 1,-7 0,17 1,-17 0,-24 1,21 0,-25 1,25 0,12 1,-19 1,-7 1,1 0,20 1,-6 0,7 1,-7 0,-15 1,11 0,-10 1,10 0,8 1,-3 0,-12 1,3 0,-6 1,6 0,11 1,-5 1,-9 1,1 0,9 1,5 1,-3 0,-13 1,7 1,5 1,-1 0,-8 1,2 0,-3 1,3 0,6 1,-4 0,6 1,-6 0,-3 1,8 1,-1 0,3 1,-3 0,-8 1,2 0,-3 1,3 0,3 1,-2 0,3 1,-3 0,4 1,2 1,-2 0,-5 1,2 0,-3 1,3 0,4 1,-4 1,-5 1,2 0,5 1,-1 1,-4 1,2 0,4 1,-1 0,3 1,-3 0,-4 1,3 1,3 1,-4 1,-4 1,1 0,4 1,1 1,-1 0,-2 1,2 1,2 1,-1 0,-2 1,1 1,-2 1,2 0,-1 1,1 1,-1 0,-1 1,1 1,1 1,1 1,-2 1,1 1,-1 1,1 0,-2 1,1 1,1 1,-1 1,-1 1,2 1,-1 0,3 1,-2 1,-1 1,1 1,-1 1,1 1,-1 0,0 1,-1 1,2 1,1 1,-1 1,-1 1,1 1,-1 0,0 1,1 1,-1 1,1 1,-1 0,0 1,-1 0,2 1,1 1,-1 1,-1 1,1 1,-1 0,0 1,0 1,0 1,1 1,-1 1,0 1,1 1,-1 0,2 1,-2 1,-1 1,1 0,1 1,-1 1,1 1,-1 0,2 1,-2 1,1 0,-2 1,1 1,1 1,-1 1,1 1,-1 1,0 1,0 1,1 1,-1 0,2 1,-2 0,-1 1,1 0,1 1,1 1,-1 0,-1 1,1 1,-1 1,0 1,1 1,-1 1,1 0,1 1,-1 0,-2 1,2 1,1 1,-1 0,-1 1,1 1,-1 1,1 1,-1 1,1 1,-1 1,1 1,-1"
           id="path18"
           style="fill:none;stroke:#000000;stroke-width:1.5625;stroke-linecap:butt;stroke-linejoin:round;stroke-miterlimit:10;stroke-opacity:1;stroke-dasharray:none" /></g><g
         transform="matrix(0.24,0,0,-0.24,0,288)"
         id="g20"><path
           d="m 175,116.6667 1600,0 0,966.6663 -1600,0 0,-966.6663 z"
           id="path22"
           style="fill:none;stroke:#000000;stroke-width:3.125;stroke-linecap:butt;stroke-linejoin:round;stroke-miterlimit:10;stroke-opacity:1;stroke-dasharray:none" /></g><g
         transform="matrix(0.24,0,0,0.24,216.96,4.08)"
         id="g24"><text
           transform="scale(1,-1)"
           id="text26"><tspan
             x="0 24.964899 36.375198 68.306 86.522301 98.354897 112.0079 127.9815"
             y="0"
             id="tspan28"
             style="font-size:41px;font-variant:normal;font-weight:normal;writing-mode:lr-tb;fill:#000000;fill-opacity:1;fill-rule:nonzero;stroke:none;font-family:Doulos SIL;-inkscape-font-specification:DoulosSIL">Time (s)</tspan></text>
</g><g
         transform="matrix(0.24,0,0,0.24,39.36,15.84)"
         id="g30"><text
           transform="scale(1,-1)"
           id="text32"><tspan
             x="0"
             y="0"
             id="tspan34"
             style="font-size:41px;font-variant:normal;font-weight:normal;writing-mode:lr-tb;fill:#000000;fill-opacity:1;fill-rule:nonzero;stroke:none;font-family:Doulos SIL;-inkscape-font-specification:DoulosSIL">0</tspan></text>
</g><g
         transform="matrix(0.24,0,0,-0.24,0,288)"
         id="g36"><path
           d="m 175,1093.833 0,-10.5"
           id="path38"
           style="fill:none;stroke:#000000;stroke-width:3.125;stroke-linecap:butt;stroke-linejoin:round;stroke-miterlimit:10;stroke-opacity:1;stroke-dasharray:none" /></g><g
         transform="matrix(0.24,0,0,0.24,414.72,15.84)"
         id="g40"><text
           transform="scale(1,-1)"
           id="text42"><tspan
             x="0 20.5205 30.7705 51.291 71.811501"
             y="0"
             id="tspan44"
             style="font-size:41px;font-variant:normal;font-weight:normal;writing-mode:lr-tb;fill:#000000;fill-opacity:1;fill-rule:nonzero;stroke:none;font-family:Doulos SIL;-inkscape-font-specification:DoulosSIL">0.979</tspan></text>
</g><g
         transform="matrix(0.24,0,0,-0.24,0,288)"
         id="g46"><path
           d="m 1775,1093.833 0,-10.5"
           id="path48"
           style="fill:none;stroke:#000000;stroke-width:3.125;stroke-linecap:butt;stroke-linejoin:round;stroke-miterlimit:10;stroke-opacity:1;stroke-dasharray:none" /></g><g
         transform="matrix(0.24,0,0,0.24,7.92,25.2)"
         id="g50"><text
           transform="scale(1,-1)"
           id="text52"><tspan
             x="0 13.653 34.1735 44.4235 64.944 85.4645 105.985"
             y="0"
             id="tspan54"
             style="font-size:41px;font-variant:normal;font-weight:normal;writing-mode:lr-tb;fill:#000000;fill-opacity:1;fill-rule:nonzero;stroke:none;font-family:Doulos SIL;-inkscape-font-specification:DoulosSIL">-0.3445</tspan></text>
</g><g
         transform="matrix(0.24,0,0,-0.24,0,288)"
         id="g56"><path
           d="m 164.5,1083.333 10.5,0"
           id="path58"
           style="fill:none;stroke:#000000;stroke-width:3.125;stroke-linecap:butt;stroke-linejoin:round;stroke-miterlimit:10;stroke-opacity:1;stroke-dasharray:none" /></g><g
         transform="matrix(0.24,0,0,0.24,11.04,257.28)"
         id="g60"><text
           transform="scale(1,-1)"
           id="text62"><tspan
             x="0 20.5205 30.7705 51.291 71.811501 92.332001"
             y="0"
             id="tspan64"
             style="font-size:41px;font-variant:normal;font-weight:normal;writing-mode:lr-tb;fill:#000000;fill-opacity:1;fill-rule:nonzero;stroke:none;font-family:Doulos SIL;-inkscape-font-specification:DoulosSIL">0.2695</tspan></text>
</g><g
         transform="matrix(0.24,0,0,-0.24,0,288)"
         id="g66"><path
           d="m 164.5,116.6667 10.5,0"
           id="path68"
           style="fill:none;stroke:#000000;stroke-width:3.125;stroke-linecap:butt;stroke-linejoin:round;stroke-miterlimit:10;stroke-opacity:1;stroke-dasharray:none" /></g><g
         transform="matrix(0.24,0,0,0.24,33.36,155.52)"
         id="g70"><text
           transform="scale(1,-1)"
           id="text72"><tspan
             x="0"
             y="0"
             id="tspan74"
             style="font-size:41px;font-variant:normal;font-weight:normal;writing-mode:lr-tb;fill:#000000;fill-opacity:1;fill-rule:nonzero;stroke:none;font-family:Doulos SIL;-inkscape-font-specification:DoulosSIL">0</tspan></text>
</g><g
         transform="matrix(0.24,0,0,-0.24,0,288)"
         id="g76"><path
           d="m 164.5,540.9737 10.5,0"
           id="path78"
           style="fill:none;stroke:#000000;stroke-width:3.125;stroke-linecap:butt;stroke-linejoin:round;stroke-miterlimit:10;stroke-opacity:1;stroke-dasharray:none" /></g><g
         transform="matrix(0.24,0,0,-0.24,0,288)"
         id="g80"><path
           d="m 175,540.9737 1600,0"
           id="path82"
           style="fill:none;stroke:#000000;stroke-width:1.046875;stroke-linecap:butt;stroke-linejoin:round;stroke-miterlimit:10;stroke-opacity:1;stroke-dasharray:3, 5.046875;stroke-dashoffset:0" /></g><g
         transform="matrix(0.24,0,0,-0.24,0,288)"
         id="g84"><path
           d="m 175,890 1600,0 0,193.333 -1600,0 L 175,890 z"
           id="path86"
           style="fill:none;stroke:#000000;stroke-width:1.5625;stroke-linecap:butt;stroke-linejoin:round;stroke-miterlimit:10;stroke-opacity:1;stroke-dasharray:none" /></g><g
         transform="matrix(0.24,0,0,-0.24,0,288)"
         id="g88"><path
           d="m 222.3953,890 0,-773.3333"
           id="path90"
           style="fill:none;stroke:#000000;stroke-width:1.5625;stroke-linecap:butt;stroke-linejoin:round;stroke-miterlimit:10;stroke-opacity:1;stroke-dasharray:3, 5.5625;stroke-dashoffset:0" /></g><g
         transform="matrix(0.24,0,0,-0.24,0,288)"
         id="g92"><path
           d="m 222.3953,1083.333 0,-193.333"
           id="path94"
           style="fill:none;stroke:#000000;stroke-width:1.5625;stroke-linecap:butt;stroke-linejoin:round;stroke-miterlimit:10;stroke-opacity:1;stroke-dasharray:none" /></g><g
         transform="matrix(0.24,0,0,0.24,61.68,48.48)"
         id="g96"><text
           transform="scale(1,-1)"
           id="text98"><tspan
             x="0 29.630699"
             y="0"
             id="tspan100"
             style="font-size:41px;font-variant:normal;font-weight:normal;writing-mode:lr-tb;fill:#000000;fill-opacity:1;fill-rule:nonzero;stroke:none;font-family:Doulos SIL;-inkscape-font-specification:DoulosSIL">DH</tspan></text>
</g><g
         transform="matrix(0.24,0,0,-0.24,0,288)"
         id="g102"><path
           d="m 353.141,890 0,-773.3333"
           id="path104"
           style="fill:none;stroke:#000000;stroke-width:1.5625;stroke-linecap:butt;stroke-linejoin:round;stroke-miterlimit:10;stroke-opacity:1;stroke-dasharray:3, 5.5625;stroke-dashoffset:0" /></g><g
         transform="matrix(0.24,0,0,-0.24,0,288)"
         id="g106"><path
           d="m 353.141,1083.333 0,-193.333"
           id="path108"
           style="fill:none;stroke:#000000;stroke-width:1.5625;stroke-linecap:butt;stroke-linejoin:round;stroke-miterlimit:10;stroke-opacity:1;stroke-dasharray:none" /></g><g
         transform="matrix(0.24,0,0,0.24,88.8,48.48)"
         id="g110"><text
           transform="scale(1,-1)"
           id="text112"><tspan
             x="0 13.653 43.283699"
             y="0"
             id="tspan114"
             style="font-size:41px;font-variant:normal;font-weight:normal;writing-mode:lr-tb;fill:#000000;fill-opacity:1;fill-rule:nonzero;stroke:none;font-family:Doulos SIL;-inkscape-font-specification:DoulosSIL">IH1</tspan></text>
</g><g
         transform="matrix(0.24,0,0,-0.24,0,288)"
         id="g116"><path
           d="m 452.8345,890 0,-773.3333"
           id="path118"
           style="fill:none;stroke:#000000;stroke-width:1.5625;stroke-linecap:butt;stroke-linejoin:round;stroke-miterlimit:10;stroke-opacity:1;stroke-dasharray:3, 5.5625;stroke-dashoffset:0" /></g><g
         transform="matrix(0.24,0,0,-0.24,0,288)"
         id="g120"><path
           d="m 452.8345,1083.333 0,-193.333"
           id="path122"
           style="fill:none;stroke:#000000;stroke-width:1.5625;stroke-linecap:butt;stroke-linejoin:round;stroke-miterlimit:10;stroke-opacity:1;stroke-dasharray:none" /></g><g
         transform="matrix(0.24,0,0,0.24,127.2,48.48)"
         id="g124"><text
           transform="scale(1,-1)"
           id="text126"><tspan
             x="0"
             y="0"
             id="tspan128"
             style="font-size:41px;font-variant:normal;font-weight:normal;writing-mode:lr-tb;fill:#000000;fill-opacity:1;fill-rule:nonzero;stroke:none;font-family:Doulos SIL;-inkscape-font-specification:DoulosSIL">S</tspan></text>
</g><g
         transform="matrix(0.24,0,0,-0.24,0,288)"
         id="g130"><path
           d="m 632.6098,890 0,-773.3333"
           id="path132"
           style="fill:none;stroke:#000000;stroke-width:1.5625;stroke-linecap:butt;stroke-linejoin:round;stroke-miterlimit:10;stroke-opacity:1;stroke-dasharray:3, 5.5625;stroke-dashoffset:0" /></g><g
         transform="matrix(0.24,0,0,-0.24,0,288)"
         id="g134"><path
           d="m 632.6098,1083.333 0,-193.333"
           id="path136"
           style="fill:none;stroke:#000000;stroke-width:1.5625;stroke-linecap:butt;stroke-linejoin:round;stroke-miterlimit:10;stroke-opacity:1;stroke-dasharray:none" /></g><g
         transform="matrix(0.24,0,0,0.24,161.76,48.48)"
         id="g138"><text
           transform="scale(1,-1)"
           id="text140"><tspan
             x="0 13.653 43.283699"
             y="0"
             id="tspan142"
             style="font-size:41px;font-variant:normal;font-weight:normal;writing-mode:lr-tb;fill:#000000;fill-opacity:1;fill-rule:nonzero;stroke:none;font-family:Doulos SIL;-inkscape-font-specification:DoulosSIL">IH1</tspan></text>
</g><g
         transform="matrix(0.24,0,0,-0.24,0,288)"
         id="g144"><path
           d="m 779.6987,890 0,-773.3333"
           id="path146"
           style="fill:none;stroke:#000000;stroke-width:1.5625;stroke-linecap:butt;stroke-linejoin:round;stroke-miterlimit:10;stroke-opacity:1;stroke-dasharray:3, 5.5625;stroke-dashoffset:0" /></g><g
         transform="matrix(0.24,0,0,-0.24,0,288)"
         id="g148"><path
           d="m 779.6987,1083.333 0,-193.333"
           id="path150"
           style="fill:none;stroke:#000000;stroke-width:1.5625;stroke-linecap:butt;stroke-linejoin:round;stroke-miterlimit:10;stroke-opacity:1;stroke-dasharray:none" /></g><g
         transform="matrix(0.24,0,0,0.24,201.6,48.48)"
         id="g152"><text
           transform="scale(1,-1)"
           id="text154"><tspan
             x="0"
             y="0"
             id="tspan156"
             style="font-size:41px;font-variant:normal;font-weight:normal;writing-mode:lr-tb;fill:#000000;fill-opacity:1;fill-rule:nonzero;stroke:none;font-family:Doulos SIL;-inkscape-font-specification:DoulosSIL">Z</tspan></text>
</g><g
         transform="matrix(0.24,0,0,-0.24,0,288)"
         id="g158"><path
           d="m 926.7875,890 0,-773.3333"
           id="path160"
           style="fill:none;stroke:#000000;stroke-width:1.5625;stroke-linecap:butt;stroke-linejoin:round;stroke-miterlimit:10;stroke-opacity:1;stroke-dasharray:3, 5.5625;stroke-dashoffset:0" /></g><g
         transform="matrix(0.24,0,0,-0.24,0,288)"
         id="g162"><path
           d="m 926.7875,1083.333 0,-193.333"
           id="path164"
           style="fill:none;stroke:#000000;stroke-width:1.5625;stroke-linecap:butt;stroke-linejoin:round;stroke-miterlimit:10;stroke-opacity:1;stroke-dasharray:none" /></g><g
         transform="matrix(0.24,0,0,0.24,220.32,48.48)"
         id="g166"><text
           transform="scale(1,-1)"
           id="text168"><tspan
             x="0 29.4667 59.097401"
             y="0"
             id="tspan170"
             style="font-size:41px;font-variant:normal;font-weight:normal;writing-mode:lr-tb;fill:#000000;fill-opacity:1;fill-rule:nonzero;stroke:none;font-family:Doulos SIL;-inkscape-font-specification:DoulosSIL">AH0</tspan></text>
</g><g
         transform="matrix(0.24,0,0,-0.24,0,288)"
         id="g172"><path
           d="m 990.526,890 0,-773.3333"
           id="path174"
           style="fill:none;stroke:#000000;stroke-width:1.5625;stroke-linecap:butt;stroke-linejoin:round;stroke-miterlimit:10;stroke-opacity:1;stroke-dasharray:3, 5.5625;stroke-dashoffset:0" /></g><g
         transform="matrix(0.24,0,0,-0.24,0,288)"
         id="g176"><path
           d="m 990.526,1083.333 0,-193.333"
           id="path178"
           style="fill:none;stroke:#000000;stroke-width:1.5625;stroke-linecap:butt;stroke-linejoin:round;stroke-miterlimit:10;stroke-opacity:1;stroke-dasharray:none" /></g><g
         transform="matrix(0.24,0,0,0.24,264,48.48)"
         id="g180"><text
           transform="scale(1,-1)"
           id="text182"><tspan
             x="0"
             y="0"
             id="tspan184"
             style="font-size:41px;font-variant:normal;font-weight:normal;writing-mode:lr-tb;fill:#000000;fill-opacity:1;fill-rule:nonzero;stroke:none;font-family:Doulos SIL;-inkscape-font-specification:DoulosSIL">T</tspan></text>
</g><g
         transform="matrix(0.24,0,0,-0.24,0,288)"
         id="g186"><path
           d="m 1235.674,890 0,-773.3333"
           id="path188"
           style="fill:none;stroke:#000000;stroke-width:1.5625;stroke-linecap:butt;stroke-linejoin:round;stroke-miterlimit:10;stroke-opacity:1;stroke-dasharray:3, 5.5625;stroke-dashoffset:0" /></g><g
         transform="matrix(0.24,0,0,-0.24,0,288)"
         id="g190"><path
           d="m 1235.674,1083.333 0,-193.333"
           id="path192"
           style="fill:none;stroke:#000000;stroke-width:1.5625;stroke-linecap:butt;stroke-linejoin:round;stroke-miterlimit:10;stroke-opacity:1;stroke-dasharray:none" /></g><g
         transform="matrix(0.24,0,0,0.24,300.96,48.48)"
         id="g194"><text
           transform="scale(1,-1)"
           id="text196"><tspan
             x="0 25.042801 54.677601"
             y="0"
             id="tspan198"
             style="font-size:41px;font-variant:normal;font-weight:normal;writing-mode:lr-tb;fill:#000000;fill-opacity:1;fill-rule:nonzero;stroke:none;font-family:Doulos SIL;-inkscape-font-specification:DoulosSIL">EH1</tspan></text>
</g><g
         transform="matrix(0.24,0,0,-0.24,0,288)"
         id="g200"><path
           d="m 1350.077,890 0,-773.3333"
           id="path202"
           style="fill:none;stroke:#000000;stroke-width:1.5625;stroke-linecap:butt;stroke-linejoin:round;stroke-miterlimit:10;stroke-opacity:1;stroke-dasharray:3, 5.5625;stroke-dashoffset:0" /></g><g
         transform="matrix(0.24,0,0,-0.24,0,288)"
         id="g204"><path
           d="m 1350.077,1083.333 0,-193.333"
           id="path206"
           style="fill:none;stroke:#000000;stroke-width:1.5625;stroke-linecap:butt;stroke-linejoin:round;stroke-miterlimit:10;stroke-opacity:1;stroke-dasharray:none" /></g><g
         transform="matrix(0.24,0,0,0.24,344.64,48.48)"
         id="g208"><text
           transform="scale(1,-1)"
           id="text210"><tspan
             x="0"
             y="0"
             id="tspan212"
             style="font-size:41px;font-variant:normal;font-weight:normal;writing-mode:lr-tb;fill:#000000;fill-opacity:1;fill-rule:nonzero;stroke:none;font-family:Doulos SIL;-inkscape-font-specification:DoulosSIL">S</tspan></text>
</g><g
         transform="matrix(0.24,0,0,-0.24,0,288)"
         id="g214"><path
           d="m 1546.195,890 0,-773.3333"
           id="path216"
           style="fill:none;stroke:#000000;stroke-width:1.5625;stroke-linecap:butt;stroke-linejoin:round;stroke-miterlimit:10;stroke-opacity:1;stroke-dasharray:3, 5.5625;stroke-dashoffset:0" /></g><g
         transform="matrix(0.24,0,0,-0.24,0,288)"
         id="g218"><path
           d="m 1546.195,1083.333 0,-193.333"
           id="path220"
           style="fill:none;stroke:#000000;stroke-width:1.5625;stroke-linecap:butt;stroke-linejoin:round;stroke-miterlimit:10;stroke-opacity:1;stroke-dasharray:none" /></g><g
         transform="matrix(0.24,0,0,0.24,385.68,48.48)"
         id="g222"><text
           transform="scale(1,-1)"
           id="text224"><tspan
             x="0"
             y="0"
             id="tspan226"
             style="font-size:41px;font-variant:normal;font-weight:normal;writing-mode:lr-tb;fill:#000000;fill-opacity:1;fill-rule:nonzero;stroke:none;font-family:Doulos SIL;-inkscape-font-specification:DoulosSIL">T</tspan></text>
</g><g
         transform="matrix(0.24,0,0,-0.24,0,288)"
         id="g228"><path
           d="m 1694.918,890 0,-773.3333"
           id="path230"
           style="fill:none;stroke:#000000;stroke-width:1.5625;stroke-linecap:butt;stroke-linejoin:round;stroke-miterlimit:10;stroke-opacity:1;stroke-dasharray:3, 5.5625;stroke-dashoffset:0" /></g><g
         transform="matrix(0.24,0,0,-0.24,0,288)"
         id="g232"><path
           d="m 1694.918,1083.333 0,-193.333"
           id="path234"
           style="fill:none;stroke:#000000;stroke-width:1.5625;stroke-linecap:butt;stroke-linejoin:round;stroke-miterlimit:10;stroke-opacity:1;stroke-dasharray:none" /></g></g></g></svg>