<?xml version="1.0" standalone="no"?>
<!DOCTYPE svg PUBLIC "-//W3C//DTD SVG 20010904//EN"
 "http://www.w3.org/TR/2001/REC-SVG-20010904/DTD/svg10.dtd">
<svg version="1.0" xmlns="http://www.w3.org/2000/svg"
 width="700.000000pt" height="700.000000pt" viewBox="0 0 700.000000 700.000000"
 preserveAspectRatio="xMidYMid meet">
<metadata>
Created by potrace 1.14, written by Peter Selinger 2001-2017
</metadata>
<g transform="translate(0.000000,700.000000) scale(0.100000,-0.100000)"
fill="#000000" stroke="none">
<path d="M3045 6370 c-2 -3 -3 -923 -4 -2045 0 -1122 -3 -2058 -5 -2080 -57
-555 -324 -893 -764 -970 -98 -17 -244 -22 -342 -11 -166 19 -354 93 -480 188
-104 79 -238 247 -290 363 -12 28 -28 64 -35 80 -52 117 -90 328 -94 520 -1
55 -3 101 -5 102 -1 1 -49 -11 -107 -28 -57 -17 -126 -37 -154 -44 -27 -7 -90
-25 -140 -40 -49 -15 -119 -35 -155 -45 -36 -10 -91 -26 -122 -36 l-58 -17 5
-56 c8 -95 17 -185 21 -206 2 -10 6 -36 9 -56 55 -365 224 -714 452 -932 89
-85 118 -108 198 -161 205 -135 450 -229 690 -262 17 -2 44 -7 60 -9 147 -25
539 -25 690 0 234 40 431 107 583 200 l42 26 1 -33 c1 -18 1 -57 0 -86 -1 -29
1 -57 4 -61 4 -8 41 1 250 59 39 10 158 42 265 70 107 29 211 58 230 65 l34
12 3 339 c1 187 4 715 7 1174 3 459 5 846 5 860 l1 26 1433 -1 c787 -1 1437 0
1442 2 12 4 14 667 2 679 -5 5 -651 9 -1437 9 -785 0 -1431 3 -1435 6 -4 5 -9
1265 -5 1665 l0 51 1436 -1 c947 -1 1438 2 1442 9 11 17 8 675 -3 676 -41 4
-3668 3 -3670 -1z"/>
</g>
</svg>
