<?xml version="1.0" encoding="UTF-8" standalone="no"?>
<!-- Created with Inkscape (http://www.inkscape.org/) -->

<svg
   xmlns:dc="http://purl.org/dc/elements/1.1/"
   xmlns:cc="http://creativecommons.org/ns#"
   xmlns:rdf="http://www.w3.org/1999/02/22-rdf-syntax-ns#"
   xmlns:svg="http://www.w3.org/2000/svg"
   xmlns="http://www.w3.org/2000/svg"
   version="1.1"
   width="585"
   height="360"
   id="svg2"
   xml:space="preserve"><metadata
     id="metadata8"><rdf:RDF><cc:Work
         rdf:about=""><dc:format>image/svg+xml</dc:format><dc:type
           rdf:resource="http://purl.org/dc/dcmitype/StillImage" /><dc:title></dc:title></cc:Work></rdf:RDF></metadata><defs
     id="defs6" /><g
     transform="matrix(1.25,0,0,-1.25,0,360)"
     id="g10"><g
       id="g12" /><g
       id="g14"><g
         transform="matrix(0.24,0,0,-0.24,0,288)"
         id="g16"><path
           d="m 245,546 0,0 1,0 1,0 1,0 1,0 1,0 1,0 1,0 1,0 1,0 1,0 1,0 1,0 1,0 1,0 1,0 1,0 1,0 1,0 1,0 1,0 1,0 1,0 1,0 1,0 1,0 1,1 1,-1 1,1 1,-1 0,0 1,0 1,-1 1,1 1,0 1,1 1,1 1,0 1,-2 1,-4 1,-6 1,1 0,-2 1,2 0,12 1,16 1,3 1,-2 0,-13 1,-16 1,-11 1,2 0,-3 1,3 0,11 1,12 1,8 1,4 1,-4 1,-11 1,-12 1,-8 1,4 1,13 1,14 1,5 1,-8 1,-14 1,-10 1,-2 1,1 0,11 1,14 1,6 1,-7 1,-14 1,-10 1,2 0,-3 1,3 0,12 1,15 1,6 1,-1 0,-11 1,-18 1,-11 1,5 1,17 1,20 1,5 1,-2 0,-17 1,-22 1,-10 1,6 1,22 1,26 1,7 1,-3 0,-28 1,-27 1,-10 1,8 1,23 1,35 1,14 1,-2 0,-31 1,-31 1,-16 1,-7 1,11 1,27 1,37 1,35 1,-38 1,-65 1,-21 1,16 0,30 1,-11 0,12 1,-5 0,-14 1,3 0,15 1,-13 0,71 1,-29 0,74 1,-47 0,48 1,-25 0,-124 1,14 0,-62 1,49 0,54 1,-17 0,57 1,-34 1,23 0,-50 1,12 0,-38 1,15 0,51 1,-24 0,26 1,-30 0,36 1,-16 0,31 1,-1 0,-25 1,-27 1,-16 1,11 0,-20 1,-33 1,2 0,-10 1,-39 0,268 1,-128 0,231 1,-41 0,-261 1,-136 1,-42 0,201 1,-30 0,194 1,-187 0,205 1,-194 0,-157 1,105 1,101 1,-54 0,192 1,-94 0,187 1,-54 0,-265 1,-128 1,-17 0,206 1,145 1,-28 0,-207 1,8 0,-94 1,21 0,154 1,-51 0,352 1,-185 0,243 1,-24 0,-348 1,-221 1,215 0,-246 1,230 0,250 1,-30 0,-263 1,-133 1,-5 0,178 1,199 1,-35 0,180 1,-202 0,225 1,-197 0,-349 1,234 0,-278 1,254 0,246 1,-32 0,-214 1,-183 1,138 0,-151 1,118 0,219 1,-19 0,176 1,-160 0,188 1,-188 0,-333 1,186 0,-222 1,222 0,216 1,-14 0,-205 1,-183 1,115 0,-121 1,121 0,282 1,-68 0,193 1,-2 0,-242 1,-289 1,172 0,-204 1,204 0,201 1,-12 0,-194 1,-118 1,110 1,253 1,-78 0,183 1,-96 0,-288 1,12 0,-162 1,264 1,67 1,-11 0,-155 1,6 0,-52 1,29 0,209 1,-8 0,164 1,-195 1,-231 1,49 0,-105 1,102 0,155 1,-91 0,92 1,-64 0,-70 1,8 0,93 1,163 1,-103 0,124 1,-124 0,-179 1,20 0,-66 1,66 0,95 1,-23 0,26 1,-26 0,-42 1,17 0,75 1,113 1,-6 0,-92 1,1 0,-118 1,-48 1,34 0,40 1,-1 0,25 1,-22 0,30 1,-12 0,54 1,-11 0,79 1,-31 0,40 1,-27 0,-105 1,-44 1,7 0,-20 1,14 0,44 1,-18 0,40 1,-21 0,40 1,-13 0,50 1,-36 0,52 1,-24 0,-46 1,5 0,-51 1,11 0,-20 1,-10 0,56 1,-11 0,53 1,-17 0,-49 1,-10 0,63 1,-25 0,52 1,-3 0,-61 1,30 0,-61 1,37 1,-42 0,76 1,-36 0,49 1,-36 0,69 1,-30 0,-71 1,26 0,-54 1,22 0,59 1,-72 0,73 1,-8 0,-78 1,62 0,-77 1,53 0,60 1,-40 0,69 1,-46 0,69 1,-42 0,-106 1,47 0,-50 1,17 0,61 1,-60 0,92 1,-42 0,-94 1,85 0,-67 1,43 0,86 1,-43 0,81 1,-31 0,-80 1,31 0,-69 1,-17 0,91 1,-71 0,123 1,-13 0,-103 1,34 0,-69 1,-9 0,94 1,-29 0,103 1,-95 0,119 1,-78 0,-69 1,-42 0,138 1,-2 0,-116 1,109 0,-64 1,38 0,-77 1,-13 0,103 1,-4 0,-103 1,38 0,68 1,-68 0,80 1,-76 1,62 0,-47 1,-8 0,75 1,-95 0,100 1,-33 0,-73 1,48 0,-58 1,5 0,68 1,-63 0,92 1,-69 0,83 1,-9 0,-107 1,13 0,98 1,-75 0,84 1,-115 0,130 1,-41 0,-95 1,90 0,-104 1,74 0,-51 1,11 0,86 1,-7 0,-63 1,-12 0,76 1,-61 0,71 1,-78 0,108 1,-35 0,-81 1,56 0,-78 1,59 0,-47 1,-18 0,104 1,-70 0,81 1,-1 0,-97 1,-6 0,119 1,-9 0,-92 1,-10 0,109 1,-29 0,-55 1,-25 0,91 1,-16 0,-90 1,89 0,-85 1,61 0,-41 1,14 0,46 1,-33 0,42 1,-50 0,55 1,-71 0,82 1,-3 0,-60 1,-19 0,107 1,-57 0,-81 1,64 0,-59 1,16 0,61 1,-28 0,48 1,-67 0,93 1,-13 0,-124 1,95 0,-61 1,-1 0,114 1,-15 0,-83 1,81 0,-111 1,83 0,-92 1,14 0,81 1,-56 0,67 1,-88 0,92 1,-29 0,-63 1,11 0,56 1,-31 0,65 1,-12 0,-66 1,47 0,-72 1,66 0,-79 1,22 0,71 1,-81 0,107 1,-34 0,-48 1,-21 0,78 1,-69 0,85 1,-91 0,102 1,-9 0,-86 1,73 0,-87 1,-1 0,89 1,-98 0,99 1,-8 0,-76 1,-25 0,116 1,-1 0,-93 1,18 0,77 1,-66 0,76 1,-129 0,138 1,-17 0,-137 1,136 0,-128 1,120 0,-68 1,-31 0,103 1,-14 0,-89 1,12 0,89 1,-61 0,79 1,-9 0,-73 1,46 0,-91 1,3 0,107 1,-6 0,-79 1,-1 0,80 1,-76 0,80 1,-7 0,-77 1,75 0,-57 1,15 0,56 1,-25 0,-47 1,-18 0,70 1,-3 0,-65 1,19 0,63 1,-15 0,-56 1,52 0,-51 1,-2 0,68 1,-46 0,52 1,-1 0,-45 1,26 0,-47 1,37 0,-42 1,4 0,38 1,-37 0,45 1,-3 0,-34 1,24 0,-30 1,9 0,23 1,-16 0,29 1,-11 0,-20 1,-4 0,25 1,-39 0,42 1,-11 0,-19 1,-2 0,26 1,-6 0,-20 1,4 0,19 1,-15 0,20 1,-20 1,2 0,22 1,-19 0,22 1,-1 0,-26 1,16 0,-17 1,10 0,-13 1,5 0,-17 1,14 0,-17 1,13 0,-29 1,-4 0,106 1,-13 0,64 1,-23 0,-102 1,-77 1,46 0,-37 1,34 0,76 1,-27 0,32 1,-13 0,-43 1,8 0,-24 1,-3 0,65 1,-1 0,94 1,-33 0,53 1,-42 0,-150 1,-74 1,41 0,84 1,76 1,-27 1,-73 1,-33 1,13 0,71 1,49 1,-9 0,-21 1,-57 1,-47 1,11 0,-23 1,21 0,47 1,-7 0,69 1,-27 0,74 1,-15 0,-86 1,-83 1,40 0,-52 1,51 0,73 1,-16 0,37 1,-32 0,-50 1,12 0,-26 1,1 0,36 1,-2 0,46 1,-21 0,40 1,-39 0,-56 1,9 0,-16 1,16 0,53 1,28 1,-31 0,33 1,-33 0,-60 1,-25 1,13 0,53 1,46 1,-1 0,9 1,-6 0,-36 1,-51 1,-19 1,6 0,47 1,49 1,-4 0,17 1,-12 0,-50 1,-46 1,27 0,-26 1,26 0,35 1,-14 0,17 1,-13 0,21 1,19 1,-8 0,-42 1,-26 1,21 0,-15 1,15 0,30 1,-11 0,20 1,-15 0,-42 1,-22 1,7 0,103 1,-26 0,98 1,-117 1,-113 1,25 0,-49 1,49 0,96 1,-5 0,62 1,-42 0,43 1,-43 0,-73 1,-38 1,-1 0,44 1,52 1,46 1,-20 0,27 1,-24 0,-63 1,-37 1,13 0,-14 1,6 0,9 1,-26 0,114 1,-47 0,137 1,-53 0,68 1,-68 0,-147 1,-81 1,43 0,113 1,-27 0,87 1,-19 0,35 1,-35 0,-88 1,-59 1,-3 0,84 1,-12 0,66 1,-26 0,56 1,-22 0,45 1,-37 0,-79 1,-48 1,50 1,43 1,-6 0,-52 1,-59 1,45 0,-44 1,44 0,140 1,-24 0,122 1,-35 0,-122 1,-166 1,29 0,-50 1,47 0,112 1,-6 0,71 1,-23 0,-102 1,-31 1,97 1,-12 0,95 1,-48 0,83 1,-79 0,95 1,-95 0,-120 1,-55 1,30 0,102 1,-8 0,41 1,-33 0,-71 1,22 0,-37 1,15 0,79 1,-18 0,80 1,-13 0,90 1,-75 0,81 1,-81 0,-163 1,-60 1,20 0,106 1,-9 0,39 1,-45 1,-21 0,79 1,-8 0,-59 1,23 0,86 1,-22 0,100 1,-10 0,-85 1,6 0,-120 1,-49 1,14 0,77 1,-8 0,38 1,-9 0,-34 1,-16 0,63 1,-63 0,85 1,-42 0,53 1,-13 0,81 1,-39 0,53 1,-44 0,-129 1,9 0,-83 1,65 0,-56 1,56 0,76 1,-7 0,-45 1,41 0,-55 1,9 0,77 1,-2 0,-38 1,-3 0,68 1,-13 0,54 1,-75 0,92 1,-85 0,-123 1,-34 1,23 0,98 1,-36 0,66 1,-19 0,-61 1,-7 0,98 1,-3 0,-84 1,43 0,51 1,-37 0,43 1,-22 0,38 1,-21 0,-60 1,-61 1,26 0,-43 1,18 0,64 1,-32 0,46 1,-64 0,97 1,-3 0,-54 1,51 0,-41 1,33 0,-35 1,-1 0,40 1,-17 0,36 1,-43 1,7 0,-62 1,21 0,-53 1,-6 0,86 1,-69 0,96 1,-87 0,107 1,-84 0,105 1,-92 0,97 1,-31 0,-70 1,66 0,-77 1,29 0,50 1,-35 0,45 1,-17 0,-77 1,19 0,-44 1,2 0,58 1,-53 0,70 1,-39 0,62 1,-44 0,58 1,-6 0,-53 1,27 0,-33 1,-8 0,52 1,-15 0,30 1,-32 0,37 1,-34 0,-45 1,1 0,-23 1,21 0,36 1,-35 0,52 1,-51 0,65 1,-13 0,-35 1,-5 0,43 1,-2 0,-32 1,32 0,-48 1,19 0,48 1,-23 0,39 1,-26 0,-57 1,2 0,-30 1,12 0,42 1,-25 0,32 1,-1 0,-35 1,7 0,38 1,-52 0,67 1,-49 0,55 1,-10 0,-47 1,30 0,37 1,-28 0,36 1,-23 0,-57 1,12 0,-30 1,16 0,32 1,-5 0,-37 1,-9 0,49 1,-33 0,42 1,-22 0,32 1,-5 0,-35 1,11 0,68 1,-28 0,50 1,-6 0,-70 1,-63 1,14 0,-31 1,29 0,37 1,-25 1,27 1,-26 0,61 1,-3 0,-31 1,21 0,-27 1,2 0,61 1,-4 0,41 1,-24 0,-82 1,-59 1,30 0,-29 1,25 0,35 1,-10 0,13 1,-13 0,29 1,-9 0,41 1,-39 0,44 1,-20 0,-40 1,1 0,72 1,-6 0,44 1,-31 0,-104 1,-57 1,9 0,60 1,44 1,-15 0,23 1,-11 0,-33 1,21 0,35 1,-5 0,-26 1,9 0,-36 1,17 0,73 1,-4 0,38 1,-37 0,-122 1,-54 1,19 0,83 1,53 1,-20 0,21 1,-18 0,-34 1,17 0,-23 1,2 0,22 1,-9 0,-32 1,19 0,89 1,-5 0,34 1,-33 0,-129 1,-55 1,26 0,90 1,46 1,-1 0,-37 1,4 0,-37 1,17 0,-20 1,13 0,12 1,-2 0,-24 1,-6 0,94 1,50 1,-27 0,-123 1,-78 1,23 0,80 1,57 1,-38 0,44 1,-44 0,-37 1,17 0,-21 1,19 0,20 1,-3 0,-18 1,-17 0,91 1,-16 0,78 1,-31 0,-106 1,-100 1,68 1,67 1,-1 0,23 1,-21 0,-43 1,10 0,-13 1,13 0,30 1,-25 1,-30 0,81 1,-22 0,86 1,-71 0,73 1,-73 0,-110 1,-35 1,27 0,79 1,-5 0,45 1,-9 0,-38 1,9 0,-16 1,-1 0,31 1,-14 0,35 1,-9 0,-33 1,19 0,-24 1,24 0,32 1,-30 0,31 1,-30 0,-43 1,-9 1,8 0,30 1,-1 0,10 1,-5 0,-13 1,-1 0,14 1,-1 0,15 1,-5 1,-13 1,6 0,-7 1,7 0,4 1,-1 0,-18 1,-7 1,4 0,19 1,5 1,-4 0,-14 1,1 0,-4 1,4 0,12 1,4 1,-2 0,-12 1,5 0,-6 1,6 0,6 1,-13 1,1 0,-7 1,3 0,11 1,6 1,-2 0,-12 1,5 0,-7 1,7 0,14 1,-7 0,9 1,-9 0,-17 1,4 0,-7 1,7 0,13 1,-8 0,9 1,-9 0,-7 1,3 0,17 1,5 1,-4 0,-22 1,-7 1,5 0,19 1,6 1,-3 0,-15 1,-2 1,1 0,8 1,-6 0,7 1,-7 0,-4 1,2 0,19 1,7 1,-4 0,-24 1,-11 1,17 1,9 1,-10 1,-2 1,2 0,11 1,-6 0,7 1,-7 0,-9 1,10 1,9 1,-1 0,-14 1,-12 1,9 1,14 1,3 1,-3 0,-7 1,1 0,-3 1,-2 1,-1 1,7 1,3 1,-1 0,-9 1,-5 1,1 0,7 1,8 1,2 1,-2 0,-4 1,1 0,-4 1,-6 1,-3 1,1 0,8 1,6 1,-5 1,-4 1,1 0,4 1,3 1,-2 1,-3 1,-3 1,-3 1,2 0,-3 1,3 0,8 1,3 1,-1 0,-7 1,-2 1,1 0,5 1,-1 0,2 1,-2 0,-4 1,-1 1,1 0,2 1,-1 1,-2 1,1 0,4 1,3 1,-4 1,-4 1,1 1,2 1,1 1,-2 1,2 1,2 1,-1 0,-2 1,-1 1,1 0,2 1,1 1,-1 0,-4 1,-2 1,4 1,2 1,-1 1,-1 1,1 1,1 1,-1 0,-1 1,-1 1,1 1,-1 1,-1 1,2 1,3 1,-1 1,1 0,-3 1,2 0,-4 1,-5 0,29 1,-16 0,-17 1,1 0,31 1,-13 0,-15 1,-3 0,25 1,-6 0,-20 1,-4 0,33 1,-39 0,43 1,-13 0,-31 1,17 0,30 1,-11 0,-37 1,23 1,-19 0,54 1,-42 0,48 1,-48 0,-40 1,20 0,55 1,-22 0,38 1,-33 0,-52 1,43 1,-11 0,35 1,-4 0,-42 1,6 0,37 1,-9 0,-27 1,30 1,-25 1,17 0,-19 1,18 0,-21 1,-2 0,29 1,-27 0,33 1,-10 0,-30 1,9 0,22 1,-2 0,-22 1,-9 0,36 1,-20 0,22 1,-22 1,22 0,-29 1,23 0,-21 1,20 0,-27 1,-3 0,36 1,-24 0,29 1,-9 0,-23 1,22 1,-1 0,-17 1,-5 0,23 1,-6 0,-12 1,4 0,14 1,-3 0,-13 1,9 0,-13 1,2 0,18 1,-19 0,20 1,-25 0,26 1,-2 0,-17 1,-2 0,21 1,-6 0,-20 1,7 0,16 1,-4 0,-19 1,19 1,-11 0,18 1,-2 0,-16 1,-1 0,22 1,-13 0,-20 1,11 0,18 1,-1 0,-18 1,14 0,-16 1,8 0,8 1,-3 0,-7 1,-4 0,14 1,-9 0,19 1,-18 1,9 0,-24 1,14 0,18 1,-25 1,14 0,-15 1,6 0,22 1,-18 0,-17 1,-3 0,27 1,-9 0,33 1,-27 0,-22 1,1 0,24 1,-14 0,33 1,-19 0,-26 1,9 0,32 1,-2 0,-22 1,20 0,-42 1,11 0,35 1,-28 0,30 1,-10 0,-32 1,10 0,28 1,-9 0,-17 1,-1 0,19 1,-3 0,-25 1,-5 0,36 1,-8 0,-32 1,1 0,42 1,-51 0,54 1,-42 0,43 1,-41 0,54 1,-27 0,-39 1,39 0,23 1,-5 0,-52 1,47 0,-35 1,32 0,-25 1,24 0,-32 1,2 0,34 1,-20 0,21 1,-10 0,-30 1,9 0,24 1,-20 0,21 1,-32 0,35 1,-15 0,-20 1,9 0,30 1,-41 1,-7 0,58 1,-34 0,35 1,-26 0,-47 1,44 0,21 1,-5 0,-28 1,14 0,-22 1,-5 0,48 1,-3 0,-41 1,34 0,-46 1,45 0,-28 1,17 0,-28 1,26 0,18 1,-18 0,-20 1,9 0,29 1,-8 0,-16 1,10 0,-11 1,3 0,-15 1,12 0,-13 1,9 0,-6 1,-8 0,15 1,-3 0,-15 1,-32 0,262 1,-148 0,254 1,-254 0,-289 1,144 0,178 1,-13 0,-245 1,190 0,-154 1,49 0,121 1,-36 0,-57 1,-160 0,271 1,417 1,-319 0,-526 1,481 0,-401 1,100 0,329 1,-161 0,-164 1,138 0,119 1,-45 0,-74 1,-37 0,130 1,-57 0,-73 1,-70 0,360 1,-135 0,371 1,-355 0,-447 1,168 0,367 1,-34 0,-363 1,231 0,-220 1,131 0,193 1,-141 0,-52 1,-3 0,131 1,-72 0,-66 1,-68 0,651 1,-442 1,-431 1,425 0,153 1,-39 0,-392 1,314 0,-194 1,31 0,197 1,-114 0,-81 1,21 0,129 1,-115 0,-48 1,-57 0,637 1,-46 0,-480 1,175 0,-509 1,478 0,82 1,-38 0,-372 1,322 0,-171 1,-7 0,192 1,-98 0,-85 1,17 0,109 1,-88 0,-38 1,-69 0,597 1,-70 0,-410 1,136 0,-459 1,422 0,82 1,-28 0,-345 1,309 0,-182 1,39 0,154 1,-78 0,-91 1,23 0,108 1,-105 0,-34 1,-52 0,541 1,-75 0,-366 1,114 0,-425 1,404 0,100 1,-23 0,-324 1,245 0,-157 1,52 0,127 1,-85 0,-67 1,13 0,95 1,-72 0,-64 1,-29 0,517 1,-88 0,-302 1,40 0,-364 1,352 0,136 1,-14 0,-296 1,195 0,-169 1,65 0,129 1,-81 0,-71 1,26 0,98 1,-61 0,-77 1,2 0,422 1,-71 0,-315 1,68 0,-291 1,283 0,137 1,-14 0,-235 1,129 0,-153 1,109 0,57 1,-26 0,-76 1,18 0,75 1,-40 0,-81 1,41 0,324 1,-32 0,-322 1,83 0,-199 1,199 0,102 1,-27 0,-160 1,79 0,-104 1,81 0,30 1,-5 0,-35 1,7 0,39 1,-31 0,-29 1,29 0,239 1,-3 0,-179 1,-160 1,95 0,69 1,-7 0,-84 1,10 0,-33 1,22 0,37 1,25 1,-45 0,52 1,-27 0,-37 1,37 0,178 1,-117 0,126 1,-126 0,-110 1,48 0,-35 1,33 0,-28 1,5 0,-20 1,8 1,-2 0,71 1,-28 0,39 1,-24 0,-28 1,28 0,68 1,-1 0,-67 1,35 0,-38 1,-3 0,41 1,-41 0,-58 1,13 0,-12 1,6 0,9 1,-9 0,39 1,-4 0,16 1,-17 0,39 1,41 1,-6 0,-49 1,11 0,-23 1,12 0,-35 1,12 0,-29 1,7 0,26 1,-26 0,-15 1,14 0,61 1,-3 0,-48 1,38 0,-39 1,38 0,39 1,-5 0,-24 1,2 0,-41 1,36 0,-45 1,33 0,-44 1,-8 0,52 1,-11 0,-41 1,28 0,47 1,-16 0,-45 1,-2 0,50 1,-26 0,67 1,-9 0,-61 1,24 0,-33 1,-6 0,58 1,-18 0,-60 1,54 0,-44 1,6 0,44 1,-58 0,71 1,-44 0,50 1,-62 0,67 1,-56 0,85 1,-28 0,-54 1,38 0,-48 1,29 0,-39 1,2 0,64 1,-58 1,-28 0,92 1,-2 0,-55 1,-12 0,70 1,-10 0,-57 1,14 0,67 1,-15 0,-75 1,-22 0,101 1,-10 0,-71 1,54 0,-62 1,6 0,62 1,-61 0,72 1,-46 0,51 1,-77 0,82 1,-13 0,-68 1,24 0,69 1,-39 0,-55 1,-3 0,60 1,-54 0,77 1,-7 0,-90 1,86 0,-54 1,53 0,-55 1,12 0,52 1,-13 0,-46 1,43 0,-50 1,4 0,87 1,-22 0,-60 1,41 0,-73 1,71 0,-44 1,-17 0,74 1,-72 0,74 1,-66 0,70 1,-62 0,67 1,-68 1,56 0,-91 1,23 0,76 1,-70 0,79 1,-22 0,-67 1,3 0,64 1,-7 0,-52 1,-12 0,82 1,-55 0,60 1,-7 0,-57 1,-2 0,68 1,-15 0,-63 1,14 0,49 1,-51 0,63 1,-23 0,-56 1,9 0,58 1,-61 1,5 0,79 1,-21 0,-61 1,10 0,57 1,-70 0,77 1,-17 0,-65 1,64 0,-56 1,-5 0,75 1,-16 0,-50 1,-2 0,56 1,-63 0,69 1,-69 0,90 1,-29 0,-55 1,23 0,46 1,-59 1,40 0,-50 1,4 0,62 1,-80 0,85 1,-15 0,-55 1,37 0,-32 1,-1 0,42 1,-40 0,44 1,-37 1,5 0,44 1,-9 0,-58 1,50 0,-37 1,-5 0,50 1,-77 0,101 1,-16 0,-55 1,38 1,-43 0,56 1,-4 0,-41 1,-26 0,101 1,-19 0,-72 1,-11 0,85 1,-84 0,99 1,-9 0,-90 1,86 0,-95 1,-33 0,157 1,-33 0,-68 1,-23 0,116 1,-5 0,-150 1,148 0,-119 1,27 0,103 1,-7 0,-107 1,90 0,-83 1,75 0,-80 1,60 0,-45 1,-14 0,81 1,-3 0,-63 1,55 0,-48 1,-8 0,62 1,-7 0,-56 1,52 0,-38 1,-11 0,49 1,-8 0,-41 1,35 0,-21 1,19 1,-22 0,28 1,-2 0,-25 1,6 0,21 1,-1 0,-17 1,13 0,-11 1,5 0,7 1,-3 0,-11 1,9 0,-10 1,9 0,-7 1,-1 0,11 1,-4 0,-9 1,14 1,-6 0,9 1,-4 0,-8 1,-1 0,10 1,-9 0,11 1,-4 0,-9 1,7 1,-1 0,-9 1,2 0,12 1,-1 0,-11 1,1 0,12 1,-7 1,-3 0,11 1,-2 0,-8 1,7 0,-9 1,9 1,-5 0,-8 1,3 0,6 1,-4 0,7 1,-1 0,-6 1,2 0,8 1,-1 0,-7 1,6 0,-9 1,8 0,-6 1,3 0,-4 1,4 0,-6 1,6 0,-9 1,4 0,7 1,-6 0,8 1,-1 0,-7 1,2 0,8 1,-2 0,-7 1,5 1,-1 0,-3 1,2 0,-4 1,4 1,-1 0,-4 1,1 0,5 1,-2 0,5 1,-3 0,-4 1,8 1,-1 0,-7 1,5 0,-6 1,5 1,-1 0,-4 1,-1 0,5 1,-4 0,5 1,-1 0,-3 1,7 1,-2 0,-4 1,-2 0,10 1,-2 0,-6 1,-25 0,53 1,-10 0,-42 1,39 0,-31 1,23 0,-11 1,-2 0,13 1,-1 0,-13 1,12 0,-6 1,1 0,6 1,-8 1,7 0,-6 1,5 0,-9 1,2 0,10 1,-1 0,-9 1,-5 0,15 1,-15 0,17 1,-10 0,-9 1,2 0,41 1,-25 0,-37 1,2 0,44 1,-10 0,14 1,-10 0,-20 1,14 0,-27 1,13 0,20 1,-17 0,26 1,-8 0,-16 1,7 0,-15 1,10 0,19 1,-10 0,-31 1,18 0,21 1,-13 0,14 1,-4 0,-21 1,13 0,-14 1,12 0,6 1,-3 0,-6 1,1 0,-5 1,-1 0,6 1,-3 0,4 1,-6 0,12 1,-2 0,17 1,-3 0,-24 1,-14 1,4 0,20 1,5 1,-15 1,6 0,-7 1,6 0,7 1,-15 1,9 0,-15 1,15 0,31 1,-36 1,-24 1,3 0,36 1,11 1,-9 0,-26 1,15 0,-21 1,21 0,14 1,-1 0,-16 1,-7 1,1 0,17 1,-4 0,5 1,-5 0,-15 1,11 0,-10 1,10 0,7 1,-3 0,-10 1,3 0,-6 1,6 0,9 1,-5 1,-7 1,10 1,-1 0,4 1,-4 0,-11 1,9 1,3 1,-3 0,-6 1,5 1,4 1,-7 1,-1 1,1 0,8 1,-5 1,-6 1,5 1,1 1,-1 0,-1 1,1 0,4 1,-3 1,-4 1,1 0,3 1,3 1,-2 0,-6 1,3 1,3 1,-1 0,-2 1,1 0,-3 1,3 0,4 1,-5 1,-1 1,1 0,3 1,-1 0,2 1,-2 0,-4 1,2 0,-3 1,3 0,3 1,-1 0,-2 1,2 1,1 1,-2 1,1 0,-2 1,2 1,-1 0,-1 1,1 0,1 1,-1 0,-1 1,1 1,-1 0,2 1,-1 0,2 1,-1 0,-1 1,1 1,-1 1,1 1,-1 0,-1 1,2 1,-1 1,-1 1,1 1,3 1,-1 0,-2 1,0 1,-1 0,2 1,-1 1,-1 1,1"
           id="path18"
           style="fill:none;stroke:#000000;stroke-width:1.5625;stroke-linecap:butt;stroke-linejoin:round;stroke-miterlimit:10;stroke-opacity:1;stroke-dasharray:none" /></g><g
         transform="matrix(0.24,0,0,-0.24,0,288)"
         id="g20"><path
           d="m 245,163.3333 1460,0 0,873.3337 -1460,0 0,-873.3337 z"
           id="path22"
           style="fill:none;stroke:#000000;stroke-width:3.125;stroke-linecap:butt;stroke-linejoin:round;stroke-miterlimit:10;stroke-opacity:1;stroke-dasharray:none" /></g><g
         transform="matrix(0.24,0,0,0.24,209.76,5.76)"
         id="g24"><text
           transform="scale(1,-1)"
           id="text26"><tspan
             x="0 35.3162 51.4576 96.627998 122.3974 139.1362 158.4502 181.047"
             y="0"
             id="tspan28"
             style="font-size:58px;font-variant:normal;font-weight:normal;writing-mode:lr-tb;fill:#000000;fill-opacity:1;fill-rule:nonzero;stroke:none;font-family:Doulos SIL;-inkscape-font-specification:DoulosSIL">Time (s)</tspan></text>
</g><g
         transform="matrix(0.24,0,0,0.24,55.2,21.84)"
         id="g30"><text
           transform="scale(1,-1)"
           id="text32"><tspan
             x="0"
             y="0"
             id="tspan34"
             style="font-size:58px;font-variant:normal;font-weight:normal;writing-mode:lr-tb;fill:#000000;fill-opacity:1;fill-rule:nonzero;stroke:none;font-family:Doulos SIL;-inkscape-font-specification:DoulosSIL">0</tspan></text>
</g><g
         transform="matrix(0.24,0,0,-0.24,0,288)"
         id="g36"><path
           d="m 245,1051.367 0,-14.7"
           id="path38"
           style="fill:none;stroke:#000000;stroke-width:3.125;stroke-linecap:butt;stroke-linejoin:round;stroke-miterlimit:10;stroke-opacity:1;stroke-dasharray:none" /></g><g
         transform="matrix(0.24,0,0,0.24,390,21.84)"
         id="g40"><text
           transform="scale(1,-1)"
           id="text42"><tspan
             x="0 29.028999 43.528999 72.557999 101.587 130.616"
             y="0"
             id="tspan44"
             style="font-size:58px;font-variant:normal;font-weight:normal;writing-mode:lr-tb;fill:#000000;fill-opacity:1;fill-rule:nonzero;stroke:none;font-family:Doulos SIL;-inkscape-font-specification:DoulosSIL">0.9079</tspan></text>
</g><g
         transform="matrix(0.24,0,0,-0.24,0,288)"
         id="g46"><path
           d="m 1705,1051.367 0,-14.7"
           id="path48"
           style="fill:none;stroke:#000000;stroke-width:3.125;stroke-linecap:butt;stroke-linejoin:round;stroke-miterlimit:10;stroke-opacity:1;stroke-dasharray:none" /></g><g
         transform="matrix(0.24,0,0,0.24,10.8,35.28)"
         id="g50"><text
           transform="scale(1,-1)"
           id="text52"><tspan
             x="0 19.313999 48.342999 62.842999 91.872002 120.901 149.92999"
             y="0"
             id="tspan54"
             style="font-size:58px;font-variant:normal;font-weight:normal;writing-mode:lr-tb;fill:#000000;fill-opacity:1;fill-rule:nonzero;stroke:none;font-family:Doulos SIL;-inkscape-font-specification:DoulosSIL">-0.3445</tspan></text>
</g><g
         transform="matrix(0.24,0,0,-0.24,0,288)"
         id="g56"><path
           d="m 230.3,1036.667 14.7,0"
           id="path58"
           style="fill:none;stroke:#000000;stroke-width:3.125;stroke-linecap:butt;stroke-linejoin:round;stroke-miterlimit:10;stroke-opacity:1;stroke-dasharray:none" /></g><g
         transform="matrix(0.24,0,0,0.24,15.36,244.8)"
         id="g60"><text
           transform="scale(1,-1)"
           id="text62"><tspan
             x="0 29.028999 43.528999 72.557999 101.587 130.616"
             y="0"
             id="tspan64"
             style="font-size:58px;font-variant:normal;font-weight:normal;writing-mode:lr-tb;fill:#000000;fill-opacity:1;fill-rule:nonzero;stroke:none;font-family:Doulos SIL;-inkscape-font-specification:DoulosSIL">0.2695</tspan></text>
</g><g
         transform="matrix(0.24,0,0,-0.24,0,288)"
         id="g66"><path
           d="m 230.3,163.3333 14.7,0"
           id="path68"
           style="fill:none;stroke:#000000;stroke-width:3.125;stroke-linecap:butt;stroke-linejoin:round;stroke-miterlimit:10;stroke-opacity:1;stroke-dasharray:none" /></g><g
         transform="matrix(0.24,0,0,0.24,46.8,152.88)"
         id="g70"><text
           transform="scale(1,-1)"
           id="text72"><tspan
             x="0"
             y="0"
             id="tspan74"
             style="font-size:58px;font-variant:normal;font-weight:normal;writing-mode:lr-tb;fill:#000000;fill-opacity:1;fill-rule:nonzero;stroke:none;font-family:Doulos SIL;-inkscape-font-specification:DoulosSIL">0</tspan></text>
</g><g
         transform="matrix(0.24,0,0,-0.24,0,288)"
         id="g76"><path
           d="m 230.3,546.6728 14.7,0"
           id="path78"
           style="fill:none;stroke:#000000;stroke-width:3.125;stroke-linecap:butt;stroke-linejoin:round;stroke-miterlimit:10;stroke-opacity:1;stroke-dasharray:none" /></g><g
         transform="matrix(0.24,0,0,-0.24,0,288)"
         id="g80"><path
           d="m 245,546.6728 1460,0"
           id="path82"
           style="fill:none;stroke:#000000;stroke-width:1.046875;stroke-linecap:butt;stroke-linejoin:round;stroke-miterlimit:10;stroke-opacity:1;stroke-dasharray:3, 5.046875;stroke-dashoffset:0" /></g></g></g></svg>